<mxfile host="drawio-plugin" modified="2023-01-04T19:56:26.547Z" agent="5.0 (Windows NT 6.2; Win64; x64) AppleWebKit/537.36 (KHTML, like Gecko) Chrome/104.0.5112.102 Safari/537.36" etag="NJ30NX3XWpbPxukDT6pb" version="20.5.3" type="embed"><diagram id="C5RBs43oDa-KdzZeNtuy" name="Page-1"><mxGraphModel dx="3058" dy="2245" grid="1" gridSize="10" guides="1" tooltips="1" connect="1" arrows="1" fold="1" page="1" pageScale="1" pageWidth="827" pageHeight="1169" math="0" shadow="0"><root><mxCell id="WIyWlLk6GJQsqaUBKTNV-0"/><mxCell id="WIyWlLk6GJQsqaUBKTNV-1" parent="WIyWlLk6GJQsqaUBKTNV-0"/><mxCell id="3BArPiUp08YbC-sUNbE6-0" value="Serwer&#10;" style="swimlane;fontStyle=1;align=center;verticalAlign=top;childLayout=stackLayout;horizontal=1;startSize=26;horizontalStack=0;resizeParent=1;resizeParentMax=0;resizeLast=0;collapsible=1;marginBottom=0;" parent="WIyWlLk6GJQsqaUBKTNV-1" vertex="1"><mxGeometry x="260" y="10" width="280" height="204" as="geometry"/></mxCell><mxCell id="3BArPiUp08YbC-sUNbE6-1" value="- gracze: Gracz[]" style="text;strokeColor=none;fillColor=none;align=left;verticalAlign=top;spacingLeft=4;spacingRight=4;overflow=hidden;rotatable=0;points=[[0,0.5],[1,0.5]];portConstraint=eastwest;" parent="3BArPiUp08YbC-sUNbE6-0" vertex="1"><mxGeometry y="26" width="280" height="26" as="geometry"/></mxCell><mxCell id="VNphzzCy2yVQrsdk2wlk-57" value="- pokoje: Pokoj[]" style="text;strokeColor=none;fillColor=none;align=left;verticalAlign=top;spacingLeft=4;spacingRight=4;overflow=hidden;rotatable=0;points=[[0,0.5],[1,0.5]];portConstraint=eastwest;" parent="3BArPiUp08YbC-sUNbE6-0" vertex="1"><mxGeometry y="52" width="280" height="26" as="geometry"/></mxCell><mxCell id="3BArPiUp08YbC-sUNbE6-2" value="" style="line;strokeWidth=1;fillColor=none;align=left;verticalAlign=middle;spacingTop=-1;spacingLeft=3;spacingRight=3;rotatable=0;labelPosition=right;points=[];portConstraint=eastwest;" parent="3BArPiUp08YbC-sUNbE6-0" vertex="1"><mxGeometry y="78" width="280" height="18" as="geometry"/></mxCell><mxCell id="3BArPiUp08YbC-sUNbE6-3" value="- rozpocznijGre(typ_warcab: ZasadyGry): void" style="text;strokeColor=none;fillColor=none;align=left;verticalAlign=top;spacingLeft=4;spacingRight=4;overflow=hidden;rotatable=0;points=[[0,0.5],[1,0.5]];portConstraint=eastwest;" parent="3BArPiUp08YbC-sUNbE6-0" vertex="1"><mxGeometry y="96" width="280" height="30" as="geometry"/></mxCell><mxCell id="3BArPiUp08YbC-sUNbE6-46" value="+ " style="text;strokeColor=none;fillColor=none;align=left;verticalAlign=top;spacingLeft=4;spacingRight=4;overflow=hidden;rotatable=0;points=[[0,0.5],[1,0.5]];portConstraint=eastwest;" parent="3BArPiUp08YbC-sUNbE6-0" vertex="1"><mxGeometry y="126" width="280" height="26" as="geometry"/></mxCell><mxCell id="3BArPiUp08YbC-sUNbE6-42" value="- wyslijStanPlanszy(): void" style="text;strokeColor=none;fillColor=none;align=left;verticalAlign=top;spacingLeft=4;spacingRight=4;overflow=hidden;rotatable=0;points=[[0,0.5],[1,0.5]];portConstraint=eastwest;" parent="3BArPiUp08YbC-sUNbE6-0" vertex="1"><mxGeometry y="152" width="280" height="26" as="geometry"/></mxCell><mxCell id="3BArPiUp08YbC-sUNbE6-32" value="+ odbierzWiadomosc(wiadomosc: String): void" style="text;strokeColor=none;fillColor=none;align=left;verticalAlign=top;spacingLeft=4;spacingRight=4;overflow=hidden;rotatable=0;points=[[0,0.5],[1,0.5]];portConstraint=eastwest;" parent="3BArPiUp08YbC-sUNbE6-0" vertex="1"><mxGeometry y="178" width="280" height="26" as="geometry"/></mxCell><mxCell id="3BArPiUp08YbC-sUNbE6-4" value="Klient&#10;" style="swimlane;fontStyle=1;align=center;verticalAlign=top;childLayout=stackLayout;horizontal=1;startSize=26;horizontalStack=0;resizeParent=1;resizeParentMax=0;resizeLast=0;collapsible=1;marginBottom=0;" parent="WIyWlLk6GJQsqaUBKTNV-1" vertex="1"><mxGeometry x="670" y="120" width="160" height="136" as="geometry"/></mxCell><mxCell id="3BArPiUp08YbC-sUNbE6-5" value="- id_gracza&#10;" style="text;strokeColor=none;fillColor=none;align=left;verticalAlign=top;spacingLeft=4;spacingRight=4;overflow=hidden;rotatable=0;points=[[0,0.5],[1,0.5]];portConstraint=eastwest;" parent="3BArPiUp08YbC-sUNbE6-4" vertex="1"><mxGeometry y="26" width="160" height="24" as="geometry"/></mxCell><mxCell id="3BArPiUp08YbC-sUNbE6-10" value="+ item: attribute" style="text;strokeColor=none;fillColor=none;align=left;verticalAlign=top;spacingLeft=4;spacingRight=4;overflow=hidden;rotatable=0;points=[[0,0.5],[1,0.5]];portConstraint=eastwest;" parent="3BArPiUp08YbC-sUNbE6-4" vertex="1"><mxGeometry y="50" width="160" height="26" as="geometry"/></mxCell><mxCell id="3BArPiUp08YbC-sUNbE6-6" value="" style="line;strokeWidth=1;fillColor=none;align=left;verticalAlign=middle;spacingTop=-1;spacingLeft=3;spacingRight=3;rotatable=0;labelPosition=right;points=[];portConstraint=eastwest;" parent="3BArPiUp08YbC-sUNbE6-4" vertex="1"><mxGeometry y="76" width="160" height="8" as="geometry"/></mxCell><mxCell id="3BArPiUp08YbC-sUNbE6-7" value="+ wyslijPolecenie()" style="text;strokeColor=none;fillColor=none;align=left;verticalAlign=top;spacingLeft=4;spacingRight=4;overflow=hidden;rotatable=0;points=[[0,0.5],[1,0.5]];portConstraint=eastwest;" parent="3BArPiUp08YbC-sUNbE6-4" vertex="1"><mxGeometry y="84" width="160" height="26" as="geometry"/></mxCell><mxCell id="3BArPiUp08YbC-sUNbE6-77" value="- odbierzStanPlanszy(): void" style="text;strokeColor=none;fillColor=none;align=left;verticalAlign=top;spacingLeft=4;spacingRight=4;overflow=hidden;rotatable=0;points=[[0,0.5],[1,0.5]];portConstraint=eastwest;" parent="3BArPiUp08YbC-sUNbE6-4" vertex="1"><mxGeometry y="110" width="160" height="26" as="geometry"/></mxCell><mxCell id="3BArPiUp08YbC-sUNbE6-11" value="Gracz" style="swimlane;fontStyle=1;align=center;verticalAlign=top;childLayout=stackLayout;horizontal=1;startSize=26;horizontalStack=0;resizeParent=1;resizeParentMax=0;resizeLast=0;collapsible=1;marginBottom=0;" parent="WIyWlLk6GJQsqaUBKTNV-1" vertex="1"><mxGeometry x="320" y="542" width="160" height="110" as="geometry"/></mxCell><mxCell id="3BArPiUp08YbC-sUNbE6-12" value="- id_gracza: int" style="text;strokeColor=none;fillColor=none;align=left;verticalAlign=top;spacingLeft=4;spacingRight=4;overflow=hidden;rotatable=0;points=[[0,0.5],[1,0.5]];portConstraint=eastwest;" parent="3BArPiUp08YbC-sUNbE6-11" vertex="1"><mxGeometry y="26" width="160" height="24" as="geometry"/></mxCell><mxCell id="3BArPiUp08YbC-sUNbE6-16" value="- kolor: int" style="text;strokeColor=none;fillColor=none;align=left;verticalAlign=top;spacingLeft=4;spacingRight=4;overflow=hidden;rotatable=0;points=[[0,0.5],[1,0.5]];portConstraint=eastwest;" parent="3BArPiUp08YbC-sUNbE6-11" vertex="1"><mxGeometry y="50" width="160" height="26" as="geometry"/></mxCell><mxCell id="3BArPiUp08YbC-sUNbE6-13" value="" style="line;strokeWidth=1;fillColor=none;align=left;verticalAlign=middle;spacingTop=-1;spacingLeft=3;spacingRight=3;rotatable=0;labelPosition=right;points=[];portConstraint=eastwest;" parent="3BArPiUp08YbC-sUNbE6-11" vertex="1"><mxGeometry y="76" width="160" height="8" as="geometry"/></mxCell><mxCell id="3BArPiUp08YbC-sUNbE6-14" value="+ method(type): type" style="text;strokeColor=none;fillColor=none;align=left;verticalAlign=top;spacingLeft=4;spacingRight=4;overflow=hidden;rotatable=0;points=[[0,0.5],[1,0.5]];portConstraint=eastwest;" parent="3BArPiUp08YbC-sUNbE6-11" vertex="1"><mxGeometry y="84" width="160" height="26" as="geometry"/></mxCell><mxCell id="3BArPiUp08YbC-sUNbE6-17" value="KontrolerStanuGry&#10;" style="swimlane;fontStyle=1;align=center;verticalAlign=top;childLayout=stackLayout;horizontal=1;startSize=26;horizontalStack=0;resizeParent=1;resizeParentMax=0;resizeLast=0;collapsible=1;marginBottom=0;" parent="WIyWlLk6GJQsqaUBKTNV-1" vertex="1"><mxGeometry x="260" y="870" width="250" height="138" as="geometry"/></mxCell><mxCell id="3BArPiUp08YbC-sUNbE6-18" value="- aktualnaPlansza: int[][]" style="text;strokeColor=none;fillColor=none;align=left;verticalAlign=top;spacingLeft=4;spacingRight=4;overflow=hidden;rotatable=0;points=[[0,0.5],[1,0.5]];portConstraint=eastwest;" parent="3BArPiUp08YbC-sUNbE6-17" vertex="1"><mxGeometry y="26" width="250" height="26" as="geometry"/></mxCell><mxCell id="3BArPiUp08YbC-sUNbE6-82" value="- aktualneZasady: ZasadyGry" style="text;strokeColor=none;fillColor=none;align=left;verticalAlign=top;spacingLeft=4;spacingRight=4;overflow=hidden;rotatable=0;points=[[0,0.5],[1,0.5]];portConstraint=eastwest;" parent="3BArPiUp08YbC-sUNbE6-17" vertex="1"><mxGeometry y="52" width="250" height="26" as="geometry"/></mxCell><mxCell id="VNphzzCy2yVQrsdk2wlk-30" value="+ KontrolerStanuGry(zasady: ZasadyGry)" style="text;strokeColor=none;fillColor=none;align=left;verticalAlign=top;spacingLeft=4;spacingRight=4;overflow=hidden;rotatable=0;points=[[0,0.5],[1,0.5]];portConstraint=eastwest;" parent="3BArPiUp08YbC-sUNbE6-17" vertex="1"><mxGeometry y="78" width="250" height="26" as="geometry"/></mxCell><mxCell id="3BArPiUp08YbC-sUNbE6-19" value="" style="line;strokeWidth=1;fillColor=none;align=left;verticalAlign=middle;spacingTop=-1;spacingLeft=3;spacingRight=3;rotatable=0;labelPosition=right;points=[];portConstraint=eastwest;" parent="3BArPiUp08YbC-sUNbE6-17" vertex="1"><mxGeometry y="104" width="250" height="8" as="geometry"/></mxCell><mxCell id="VNphzzCy2yVQrsdk2wlk-12" value="- zaktualizujPlansze(): void" style="text;strokeColor=none;fillColor=none;align=left;verticalAlign=top;spacingLeft=4;spacingRight=4;overflow=hidden;rotatable=0;points=[[0,0.5],[1,0.5]];portConstraint=eastwest;" parent="3BArPiUp08YbC-sUNbE6-17" vertex="1"><mxGeometry y="112" width="250" height="26" as="geometry"/></mxCell><mxCell id="3BArPiUp08YbC-sUNbE6-23" value="&lt;&lt;interface&gt;&gt;&#10;ZasadyGry" style="swimlane;fontStyle=1;align=center;verticalAlign=top;childLayout=stackLayout;horizontal=1;startSize=44;horizontalStack=0;resizeParent=1;resizeParentMax=0;resizeLast=0;collapsible=1;marginBottom=0;" parent="WIyWlLk6GJQsqaUBKTNV-1" vertex="1"><mxGeometry x="-200" y="721" width="160" height="124" as="geometry"/></mxCell><mxCell id="3BArPiUp08YbC-sUNbE6-24" value="+ field: type" style="text;strokeColor=none;fillColor=none;align=left;verticalAlign=top;spacingLeft=4;spacingRight=4;overflow=hidden;rotatable=0;points=[[0,0.5],[1,0.5]];portConstraint=eastwest;" parent="3BArPiUp08YbC-sUNbE6-23" vertex="1"><mxGeometry y="44" width="160" height="40" as="geometry"/></mxCell><mxCell id="3BArPiUp08YbC-sUNbE6-25" value="" style="line;strokeWidth=1;fillColor=none;align=left;verticalAlign=middle;spacingTop=-1;spacingLeft=3;spacingRight=3;rotatable=0;labelPosition=right;points=[];portConstraint=eastwest;" parent="3BArPiUp08YbC-sUNbE6-23" vertex="1"><mxGeometry y="84" width="160" height="8" as="geometry"/></mxCell><mxCell id="3BArPiUp08YbC-sUNbE6-26" value="+ sprawdzRuch(): bool" style="text;strokeColor=none;fillColor=none;align=left;verticalAlign=top;spacingLeft=4;spacingRight=4;overflow=hidden;rotatable=0;points=[[0,0.5],[1,0.5]];portConstraint=eastwest;" parent="3BArPiUp08YbC-sUNbE6-23" vertex="1"><mxGeometry y="92" width="160" height="32" as="geometry"/></mxCell><mxCell id="3BArPiUp08YbC-sUNbE6-28" value="&lt;&lt;interface&gt;&gt;&#10;Komenda" style="swimlane;fontStyle=1;align=center;verticalAlign=top;childLayout=stackLayout;horizontal=1;startSize=40;horizontalStack=0;resizeParent=1;resizeParentMax=0;resizeLast=0;collapsible=1;marginBottom=0;" parent="WIyWlLk6GJQsqaUBKTNV-1" vertex="1"><mxGeometry x="-680" y="370" width="160" height="100" as="geometry"/></mxCell><mxCell id="3BArPiUp08YbC-sUNbE6-29" value="+ field: type" style="text;strokeColor=none;fillColor=none;align=left;verticalAlign=top;spacingLeft=4;spacingRight=4;overflow=hidden;rotatable=0;points=[[0,0.5],[1,0.5]];portConstraint=eastwest;" parent="3BArPiUp08YbC-sUNbE6-28" vertex="1"><mxGeometry y="40" width="160" height="26" as="geometry"/></mxCell><mxCell id="3BArPiUp08YbC-sUNbE6-30" value="" style="line;strokeWidth=1;fillColor=none;align=left;verticalAlign=middle;spacingTop=-1;spacingLeft=3;spacingRight=3;rotatable=0;labelPosition=right;points=[];portConstraint=eastwest;" parent="3BArPiUp08YbC-sUNbE6-28" vertex="1"><mxGeometry y="66" width="160" height="8" as="geometry"/></mxCell><mxCell id="3BArPiUp08YbC-sUNbE6-31" value="+ method(type): type" style="text;strokeColor=none;fillColor=none;align=left;verticalAlign=top;spacingLeft=4;spacingRight=4;overflow=hidden;rotatable=0;points=[[0,0.5],[1,0.5]];portConstraint=eastwest;" parent="3BArPiUp08YbC-sUNbE6-28" vertex="1"><mxGeometry y="74" width="160" height="26" as="geometry"/></mxCell><mxCell id="3BArPiUp08YbC-sUNbE6-33" value="TworcaKomendy&#10;" style="swimlane;fontStyle=1;align=center;verticalAlign=top;childLayout=stackLayout;horizontal=1;startSize=26;horizontalStack=0;resizeParent=1;resizeParentMax=0;resizeLast=0;collapsible=1;marginBottom=0;" parent="WIyWlLk6GJQsqaUBKTNV-1" vertex="1"><mxGeometry x="-320" y="397" width="290" height="86" as="geometry"/></mxCell><mxCell id="3BArPiUp08YbC-sUNbE6-34" value="+ field: type" style="text;strokeColor=none;fillColor=none;align=left;verticalAlign=top;spacingLeft=4;spacingRight=4;overflow=hidden;rotatable=0;points=[[0,0.5],[1,0.5]];portConstraint=eastwest;" parent="3BArPiUp08YbC-sUNbE6-33" vertex="1"><mxGeometry y="26" width="290" height="26" as="geometry"/></mxCell><mxCell id="3BArPiUp08YbC-sUNbE6-35" value="" style="line;strokeWidth=1;fillColor=none;align=left;verticalAlign=middle;spacingTop=-1;spacingLeft=3;spacingRight=3;rotatable=0;labelPosition=right;points=[];portConstraint=eastwest;" parent="3BArPiUp08YbC-sUNbE6-33" vertex="1"><mxGeometry y="52" width="290" height="8" as="geometry"/></mxCell><mxCell id="3BArPiUp08YbC-sUNbE6-36" value="+ utworzKomende(wiadomosc: String): Komenda" style="text;strokeColor=none;fillColor=none;align=left;verticalAlign=top;spacingLeft=4;spacingRight=4;overflow=hidden;rotatable=0;points=[[0,0.5],[1,0.5]];portConstraint=eastwest;" parent="3BArPiUp08YbC-sUNbE6-33" vertex="1"><mxGeometry y="60" width="290" height="26" as="geometry"/></mxCell><mxCell id="3BArPiUp08YbC-sUNbE6-38" value="WybierzTrybGry&#10;" style="swimlane;fontStyle=1;align=center;verticalAlign=top;childLayout=stackLayout;horizontal=1;startSize=26;horizontalStack=0;resizeParent=1;resizeParentMax=0;resizeLast=0;collapsible=1;marginBottom=0;" parent="WIyWlLk6GJQsqaUBKTNV-1" vertex="1"><mxGeometry x="-510" y="585" width="160" height="86" as="geometry"/></mxCell><mxCell id="3BArPiUp08YbC-sUNbE6-39" value="- zasady: ZasadyGry" style="text;strokeColor=none;fillColor=none;align=left;verticalAlign=top;spacingLeft=4;spacingRight=4;overflow=hidden;rotatable=0;points=[[0,0.5],[1,0.5]];portConstraint=eastwest;" parent="3BArPiUp08YbC-sUNbE6-38" vertex="1"><mxGeometry y="26" width="160" height="26" as="geometry"/></mxCell><mxCell id="3BArPiUp08YbC-sUNbE6-40" value="" style="line;strokeWidth=1;fillColor=none;align=left;verticalAlign=middle;spacingTop=-1;spacingLeft=3;spacingRight=3;rotatable=0;labelPosition=right;points=[];portConstraint=eastwest;" parent="3BArPiUp08YbC-sUNbE6-38" vertex="1"><mxGeometry y="52" width="160" height="8" as="geometry"/></mxCell><mxCell id="3BArPiUp08YbC-sUNbE6-41" value="+ method(type): type" style="text;strokeColor=none;fillColor=none;align=left;verticalAlign=top;spacingLeft=4;spacingRight=4;overflow=hidden;rotatable=0;points=[[0,0.5],[1,0.5]];portConstraint=eastwest;" parent="3BArPiUp08YbC-sUNbE6-38" vertex="1"><mxGeometry y="60" width="160" height="26" as="geometry"/></mxCell><mxCell id="3BArPiUp08YbC-sUNbE6-47" value="PrzetwarzaczWiadomosci" style="swimlane;fontStyle=1;align=center;verticalAlign=top;childLayout=stackLayout;horizontal=1;startSize=26;horizontalStack=0;resizeParent=1;resizeParentMax=0;resizeLast=0;collapsible=1;marginBottom=0;" parent="WIyWlLk6GJQsqaUBKTNV-1" vertex="1"><mxGeometry x="140" y="397" width="190" height="86" as="geometry"/></mxCell><mxCell id="3BArPiUp08YbC-sUNbE6-48" value="+ field: type" style="text;strokeColor=none;fillColor=none;align=left;verticalAlign=top;spacingLeft=4;spacingRight=4;overflow=hidden;rotatable=0;points=[[0,0.5],[1,0.5]];portConstraint=eastwest;" parent="3BArPiUp08YbC-sUNbE6-47" vertex="1"><mxGeometry y="26" width="190" height="26" as="geometry"/></mxCell><mxCell id="3BArPiUp08YbC-sUNbE6-49" value="" style="line;strokeWidth=1;fillColor=none;align=left;verticalAlign=middle;spacingTop=-1;spacingLeft=3;spacingRight=3;rotatable=0;labelPosition=right;points=[];portConstraint=eastwest;" parent="3BArPiUp08YbC-sUNbE6-47" vertex="1"><mxGeometry y="52" width="190" height="8" as="geometry"/></mxCell><mxCell id="3BArPiUp08YbC-sUNbE6-50" value="+ method(type): type" style="text;strokeColor=none;fillColor=none;align=left;verticalAlign=top;spacingLeft=4;spacingRight=4;overflow=hidden;rotatable=0;points=[[0,0.5],[1,0.5]];portConstraint=eastwest;" parent="3BArPiUp08YbC-sUNbE6-47" vertex="1"><mxGeometry y="60" width="190" height="26" as="geometry"/></mxCell><mxCell id="3BArPiUp08YbC-sUNbE6-52" value="*" style="endArrow=open;html=1;endSize=12;startArrow=diamondThin;startSize=14;startFill=0;edgeStyle=orthogonalEdgeStyle;align=left;verticalAlign=bottom;rounded=0;" parent="WIyWlLk6GJQsqaUBKTNV-1" source="3BArPiUp08YbC-sUNbE6-11" target="blXQ6vC0kgBiwH_Xx96O-10" edge="1"><mxGeometry x="-0.8462" y="-1" relative="1" as="geometry"><mxPoint x="-130" y="370" as="sourcePoint"/><mxPoint x="30" y="370" as="targetPoint"/><mxPoint as="offset"/><Array as="points"><mxPoint x="220" y="570"/><mxPoint x="220" y="570"/></Array></mxGeometry></mxCell><mxCell id="3BArPiUp08YbC-sUNbE6-53" value="" style="endArrow=none;html=1;edgeStyle=orthogonalEdgeStyle;rounded=0;" parent="WIyWlLk6GJQsqaUBKTNV-1" source="blXQ6vC0kgBiwH_Xx96O-0" target="3BArPiUp08YbC-sUNbE6-47" edge="1"><mxGeometry relative="1" as="geometry"><mxPoint x="200" y="480" as="sourcePoint"/><mxPoint x="100" y="50" as="targetPoint"/><Array as="points"><mxPoint x="450" y="440"/><mxPoint x="450" y="440"/></Array></mxGeometry></mxCell><mxCell id="3BArPiUp08YbC-sUNbE6-54" value="1" style="edgeLabel;resizable=0;html=1;align=left;verticalAlign=bottom;" parent="3BArPiUp08YbC-sUNbE6-53" connectable="0" vertex="1"><mxGeometry x="-1" relative="1" as="geometry"><mxPoint y="22" as="offset"/></mxGeometry></mxCell><mxCell id="3BArPiUp08YbC-sUNbE6-55" value="1" style="edgeLabel;resizable=0;html=1;align=right;verticalAlign=bottom;" parent="3BArPiUp08YbC-sUNbE6-53" connectable="0" vertex="1"><mxGeometry x="1" relative="1" as="geometry"><mxPoint x="-10" as="offset"/></mxGeometry></mxCell><mxCell id="3BArPiUp08YbC-sUNbE6-56" value="" style="endArrow=block;dashed=1;endFill=0;endSize=12;html=1;rounded=0;" parent="WIyWlLk6GJQsqaUBKTNV-1" source="3BArPiUp08YbC-sUNbE6-38" target="3BArPiUp08YbC-sUNbE6-28" edge="1"><mxGeometry width="160" relative="1" as="geometry"><mxPoint x="-100" y="900" as="sourcePoint"/><mxPoint x="60" y="900" as="targetPoint"/></mxGeometry></mxCell><mxCell id="3BArPiUp08YbC-sUNbE6-57" value="RuchPionka" style="swimlane;fontStyle=1;align=center;verticalAlign=top;childLayout=stackLayout;horizontal=1;startSize=26;horizontalStack=0;resizeParent=1;resizeParentMax=0;resizeLast=0;collapsible=1;marginBottom=0;" parent="WIyWlLk6GJQsqaUBKTNV-1" vertex="1"><mxGeometry x="-950" y="598" width="160" height="60" as="geometry"/></mxCell><mxCell id="3BArPiUp08YbC-sUNbE6-59" value="" style="line;strokeWidth=1;fillColor=none;align=left;verticalAlign=middle;spacingTop=-1;spacingLeft=3;spacingRight=3;rotatable=0;labelPosition=right;points=[];portConstraint=eastwest;" parent="3BArPiUp08YbC-sUNbE6-57" vertex="1"><mxGeometry y="26" width="160" height="8" as="geometry"/></mxCell><mxCell id="3BArPiUp08YbC-sUNbE6-60" value="+ method(type): type" style="text;strokeColor=none;fillColor=none;align=left;verticalAlign=top;spacingLeft=4;spacingRight=4;overflow=hidden;rotatable=0;points=[[0,0.5],[1,0.5]];portConstraint=eastwest;" parent="3BArPiUp08YbC-sUNbE6-57" vertex="1"><mxGeometry y="34" width="160" height="26" as="geometry"/></mxCell><mxCell id="3BArPiUp08YbC-sUNbE6-61" value="" style="endArrow=block;dashed=1;endFill=0;endSize=12;html=1;rounded=0;" parent="WIyWlLk6GJQsqaUBKTNV-1" source="3BArPiUp08YbC-sUNbE6-57" target="3BArPiUp08YbC-sUNbE6-28" edge="1"><mxGeometry width="160" relative="1" as="geometry"><mxPoint x="-70" y="710" as="sourcePoint"/><mxPoint x="90" y="710" as="targetPoint"/></mxGeometry></mxCell><mxCell id="3BArPiUp08YbC-sUNbE6-62" value="" style="endArrow=none;html=1;edgeStyle=orthogonalEdgeStyle;rounded=0;" parent="WIyWlLk6GJQsqaUBKTNV-1" source="3BArPiUp08YbC-sUNbE6-28" target="3BArPiUp08YbC-sUNbE6-33" edge="1"><mxGeometry relative="1" as="geometry"><mxPoint x="-230" y="616" as="sourcePoint"/><mxPoint x="-130" y="505" as="targetPoint"/><Array as="points"><mxPoint x="-500" y="440"/><mxPoint x="-500" y="440"/></Array></mxGeometry></mxCell><mxCell id="3BArPiUp08YbC-sUNbE6-63" value="parent" style="edgeLabel;resizable=0;html=1;align=left;verticalAlign=bottom;" parent="3BArPiUp08YbC-sUNbE6-62" connectable="0" vertex="1"><mxGeometry x="-1" relative="1" as="geometry"><mxPoint x="10" y="-6" as="offset"/></mxGeometry></mxCell><mxCell id="3BArPiUp08YbC-sUNbE6-64" value="child" style="edgeLabel;resizable=0;html=1;align=right;verticalAlign=bottom;" parent="3BArPiUp08YbC-sUNbE6-62" connectable="0" vertex="1"><mxGeometry x="1" relative="1" as="geometry"><mxPoint x="-10" as="offset"/></mxGeometry></mxCell><mxCell id="3BArPiUp08YbC-sUNbE6-65" value="" style="endArrow=none;html=1;edgeStyle=orthogonalEdgeStyle;rounded=0;" parent="WIyWlLk6GJQsqaUBKTNV-1" source="3BArPiUp08YbC-sUNbE6-33" target="3BArPiUp08YbC-sUNbE6-47" edge="1"><mxGeometry relative="1" as="geometry"><mxPoint x="-30" y="610" as="sourcePoint"/><mxPoint x="130" y="610" as="targetPoint"/></mxGeometry></mxCell><mxCell id="3BArPiUp08YbC-sUNbE6-66" value="1" style="edgeLabel;resizable=0;html=1;align=left;verticalAlign=bottom;" parent="3BArPiUp08YbC-sUNbE6-65" connectable="0" vertex="1"><mxGeometry x="-1" relative="1" as="geometry"/></mxCell><mxCell id="3BArPiUp08YbC-sUNbE6-67" value="1" style="edgeLabel;resizable=0;html=1;align=right;verticalAlign=bottom;" parent="3BArPiUp08YbC-sUNbE6-65" connectable="0" vertex="1"><mxGeometry x="1" relative="1" as="geometry"/></mxCell><mxCell id="3BArPiUp08YbC-sUNbE6-68" value="" style="endArrow=none;html=1;edgeStyle=orthogonalEdgeStyle;rounded=0;" parent="WIyWlLk6GJQsqaUBKTNV-1" source="3BArPiUp08YbC-sUNbE6-47" target="blXQ6vC0kgBiwH_Xx96O-10" edge="1"><mxGeometry relative="1" as="geometry"><mxPoint x="280" y="650" as="sourcePoint"/><mxPoint x="250" y="720" as="targetPoint"/><Array as="points"><mxPoint x="140" y="444"/><mxPoint x="170" y="444"/></Array></mxGeometry></mxCell><mxCell id="3BArPiUp08YbC-sUNbE6-69" value="1" style="edgeLabel;resizable=0;html=1;align=left;verticalAlign=bottom;" parent="3BArPiUp08YbC-sUNbE6-68" connectable="0" vertex="1"><mxGeometry x="-1" relative="1" as="geometry"><mxPoint x="10" y="24" as="offset"/></mxGeometry></mxCell><mxCell id="3BArPiUp08YbC-sUNbE6-70" value="1" style="edgeLabel;resizable=0;html=1;align=right;verticalAlign=bottom;" parent="3BArPiUp08YbC-sUNbE6-68" connectable="0" vertex="1"><mxGeometry x="1" relative="1" as="geometry"><mxPoint x="-10" y="-4" as="offset"/></mxGeometry></mxCell><mxCell id="3BArPiUp08YbC-sUNbE6-74" value="" style="endArrow=none;html=1;edgeStyle=orthogonalEdgeStyle;rounded=0;" parent="WIyWlLk6GJQsqaUBKTNV-1" source="blXQ6vC0kgBiwH_Xx96O-0" target="3BArPiUp08YbC-sUNbE6-4" edge="1"><mxGeometry relative="1" as="geometry"><mxPoint x="400" y="540" as="sourcePoint"/><mxPoint x="560" y="540" as="targetPoint"/><Array as="points"><mxPoint x="620" y="188"/></Array></mxGeometry></mxCell><mxCell id="3BArPiUp08YbC-sUNbE6-75" value="1" style="edgeLabel;resizable=0;html=1;align=left;verticalAlign=bottom;" parent="3BArPiUp08YbC-sUNbE6-74" connectable="0" vertex="1"><mxGeometry x="-1" relative="1" as="geometry"><mxPoint x="10" as="offset"/></mxGeometry></mxCell><mxCell id="3BArPiUp08YbC-sUNbE6-76" value="0..2" style="edgeLabel;resizable=0;html=1;align=right;verticalAlign=bottom;" parent="3BArPiUp08YbC-sUNbE6-74" connectable="0" vertex="1"><mxGeometry x="1" relative="1" as="geometry"><mxPoint x="-10" as="offset"/></mxGeometry></mxCell><mxCell id="VNphzzCy2yVQrsdk2wlk-0" value="Zasady1" style="swimlane;fontStyle=1;align=center;verticalAlign=top;childLayout=stackLayout;horizontal=1;startSize=26;horizontalStack=0;resizeParent=1;resizeParentMax=0;resizeLast=0;collapsible=1;marginBottom=0;" parent="WIyWlLk6GJQsqaUBKTNV-1" vertex="1"><mxGeometry x="-420" y="1030" width="160" height="86" as="geometry"/></mxCell><mxCell id="VNphzzCy2yVQrsdk2wlk-1" value="+ field: type" style="text;strokeColor=none;fillColor=none;align=left;verticalAlign=top;spacingLeft=4;spacingRight=4;overflow=hidden;rotatable=0;points=[[0,0.5],[1,0.5]];portConstraint=eastwest;" parent="VNphzzCy2yVQrsdk2wlk-0" vertex="1"><mxGeometry y="26" width="160" height="26" as="geometry"/></mxCell><mxCell id="VNphzzCy2yVQrsdk2wlk-2" value="" style="line;strokeWidth=1;fillColor=none;align=left;verticalAlign=middle;spacingTop=-1;spacingLeft=3;spacingRight=3;rotatable=0;labelPosition=right;points=[];portConstraint=eastwest;" parent="VNphzzCy2yVQrsdk2wlk-0" vertex="1"><mxGeometry y="52" width="160" height="8" as="geometry"/></mxCell><mxCell id="VNphzzCy2yVQrsdk2wlk-3" value="+ method(type): type" style="text;strokeColor=none;fillColor=none;align=left;verticalAlign=top;spacingLeft=4;spacingRight=4;overflow=hidden;rotatable=0;points=[[0,0.5],[1,0.5]];portConstraint=eastwest;" parent="VNphzzCy2yVQrsdk2wlk-0" vertex="1"><mxGeometry y="60" width="160" height="26" as="geometry"/></mxCell><mxCell id="VNphzzCy2yVQrsdk2wlk-4" value="Zasady2" style="swimlane;fontStyle=1;align=center;verticalAlign=top;childLayout=stackLayout;horizontal=1;startSize=26;horizontalStack=0;resizeParent=1;resizeParentMax=0;resizeLast=0;collapsible=1;marginBottom=0;" parent="WIyWlLk6GJQsqaUBKTNV-1" vertex="1"><mxGeometry x="-200" y="1030" width="160" height="86" as="geometry"/></mxCell><mxCell id="VNphzzCy2yVQrsdk2wlk-5" value="+ field: type" style="text;strokeColor=none;fillColor=none;align=left;verticalAlign=top;spacingLeft=4;spacingRight=4;overflow=hidden;rotatable=0;points=[[0,0.5],[1,0.5]];portConstraint=eastwest;" parent="VNphzzCy2yVQrsdk2wlk-4" vertex="1"><mxGeometry y="26" width="160" height="26" as="geometry"/></mxCell><mxCell id="VNphzzCy2yVQrsdk2wlk-6" value="" style="line;strokeWidth=1;fillColor=none;align=left;verticalAlign=middle;spacingTop=-1;spacingLeft=3;spacingRight=3;rotatable=0;labelPosition=right;points=[];portConstraint=eastwest;" parent="VNphzzCy2yVQrsdk2wlk-4" vertex="1"><mxGeometry y="52" width="160" height="8" as="geometry"/></mxCell><mxCell id="VNphzzCy2yVQrsdk2wlk-7" value="+ method(type): type" style="text;strokeColor=none;fillColor=none;align=left;verticalAlign=top;spacingLeft=4;spacingRight=4;overflow=hidden;rotatable=0;points=[[0,0.5],[1,0.5]];portConstraint=eastwest;" parent="VNphzzCy2yVQrsdk2wlk-4" vertex="1"><mxGeometry y="60" width="160" height="26" as="geometry"/></mxCell><mxCell id="VNphzzCy2yVQrsdk2wlk-8" value="Zasady3" style="swimlane;fontStyle=1;align=center;verticalAlign=top;childLayout=stackLayout;horizontal=1;startSize=26;horizontalStack=0;resizeParent=1;resizeParentMax=0;resizeLast=0;collapsible=1;marginBottom=0;" parent="WIyWlLk6GJQsqaUBKTNV-1" vertex="1"><mxGeometry x="20" y="1030" width="160" height="86" as="geometry"/></mxCell><mxCell id="VNphzzCy2yVQrsdk2wlk-9" value="+ field: type" style="text;strokeColor=none;fillColor=none;align=left;verticalAlign=top;spacingLeft=4;spacingRight=4;overflow=hidden;rotatable=0;points=[[0,0.5],[1,0.5]];portConstraint=eastwest;" parent="VNphzzCy2yVQrsdk2wlk-8" vertex="1"><mxGeometry y="26" width="160" height="26" as="geometry"/></mxCell><mxCell id="VNphzzCy2yVQrsdk2wlk-10" value="" style="line;strokeWidth=1;fillColor=none;align=left;verticalAlign=middle;spacingTop=-1;spacingLeft=3;spacingRight=3;rotatable=0;labelPosition=right;points=[];portConstraint=eastwest;" parent="VNphzzCy2yVQrsdk2wlk-8" vertex="1"><mxGeometry y="52" width="160" height="8" as="geometry"/></mxCell><mxCell id="VNphzzCy2yVQrsdk2wlk-11" value="+ method(type): type" style="text;strokeColor=none;fillColor=none;align=left;verticalAlign=top;spacingLeft=4;spacingRight=4;overflow=hidden;rotatable=0;points=[[0,0.5],[1,0.5]];portConstraint=eastwest;" parent="VNphzzCy2yVQrsdk2wlk-8" vertex="1"><mxGeometry y="60" width="160" height="26" as="geometry"/></mxCell><mxCell id="VNphzzCy2yVQrsdk2wlk-13" value="" style="endArrow=block;dashed=1;endFill=0;endSize=12;html=1;rounded=0;exitX=0.5;exitY=0;exitDx=0;exitDy=0;" parent="WIyWlLk6GJQsqaUBKTNV-1" source="VNphzzCy2yVQrsdk2wlk-0" target="3BArPiUp08YbC-sUNbE6-23" edge="1"><mxGeometry width="160" relative="1" as="geometry"><mxPoint x="420" y="900" as="sourcePoint"/><mxPoint x="580" y="900" as="targetPoint"/></mxGeometry></mxCell><mxCell id="VNphzzCy2yVQrsdk2wlk-14" value="" style="endArrow=block;dashed=1;endFill=0;endSize=12;html=1;rounded=0;" parent="WIyWlLk6GJQsqaUBKTNV-1" source="VNphzzCy2yVQrsdk2wlk-4" target="3BArPiUp08YbC-sUNbE6-23" edge="1"><mxGeometry width="160" relative="1" as="geometry"><mxPoint x="510" y="920" as="sourcePoint"/><mxPoint x="670" y="920" as="targetPoint"/></mxGeometry></mxCell><mxCell id="VNphzzCy2yVQrsdk2wlk-15" value="" style="endArrow=block;dashed=1;endFill=0;endSize=12;html=1;rounded=0;" parent="WIyWlLk6GJQsqaUBKTNV-1" source="VNphzzCy2yVQrsdk2wlk-8" target="3BArPiUp08YbC-sUNbE6-23" edge="1"><mxGeometry width="160" relative="1" as="geometry"><mxPoint x="760" y="900" as="sourcePoint"/><mxPoint x="920" y="900" as="targetPoint"/></mxGeometry></mxCell><mxCell id="VNphzzCy2yVQrsdk2wlk-76" value="PodajDostepneRuchy" style="swimlane;fontStyle=1;align=center;verticalAlign=top;childLayout=stackLayout;horizontal=1;startSize=26;horizontalStack=0;resizeParent=1;resizeParentMax=0;resizeLast=0;collapsible=1;marginBottom=0;" parent="WIyWlLk6GJQsqaUBKTNV-1" vertex="1"><mxGeometry x="-730" y="585" width="160" height="86" as="geometry"/></mxCell><mxCell id="VNphzzCy2yVQrsdk2wlk-77" value="+ field: type" style="text;strokeColor=none;fillColor=none;align=left;verticalAlign=top;spacingLeft=4;spacingRight=4;overflow=hidden;rotatable=0;points=[[0,0.5],[1,0.5]];portConstraint=eastwest;" parent="VNphzzCy2yVQrsdk2wlk-76" vertex="1"><mxGeometry y="26" width="160" height="26" as="geometry"/></mxCell><mxCell id="VNphzzCy2yVQrsdk2wlk-78" value="" style="line;strokeWidth=1;fillColor=none;align=left;verticalAlign=middle;spacingTop=-1;spacingLeft=3;spacingRight=3;rotatable=0;labelPosition=right;points=[];portConstraint=eastwest;" parent="VNphzzCy2yVQrsdk2wlk-76" vertex="1"><mxGeometry y="52" width="160" height="8" as="geometry"/></mxCell><mxCell id="VNphzzCy2yVQrsdk2wlk-79" value="+ method(type): type" style="text;strokeColor=none;fillColor=none;align=left;verticalAlign=top;spacingLeft=4;spacingRight=4;overflow=hidden;rotatable=0;points=[[0,0.5],[1,0.5]];portConstraint=eastwest;" parent="VNphzzCy2yVQrsdk2wlk-76" vertex="1"><mxGeometry y="60" width="160" height="26" as="geometry"/></mxCell><mxCell id="VNphzzCy2yVQrsdk2wlk-80" value="" style="endArrow=block;dashed=1;endFill=0;endSize=12;html=1;rounded=0;" parent="WIyWlLk6GJQsqaUBKTNV-1" source="VNphzzCy2yVQrsdk2wlk-76" target="3BArPiUp08YbC-sUNbE6-28" edge="1"><mxGeometry width="160" relative="1" as="geometry"><mxPoint x="-540" y="730" as="sourcePoint"/><mxPoint x="-380" y="730" as="targetPoint"/></mxGeometry></mxCell><mxCell id="VNphzzCy2yVQrsdk2wlk-91" value="Pokoj" style="swimlane;fontStyle=1;align=center;verticalAlign=top;childLayout=stackLayout;horizontal=1;startSize=26;horizontalStack=0;resizeParent=1;resizeParentMax=0;resizeLast=0;collapsible=1;marginBottom=0;" parent="WIyWlLk6GJQsqaUBKTNV-1" vertex="1"><mxGeometry x="40" y="694" width="270" height="112" as="geometry"/></mxCell><mxCell id="VNphzzCy2yVQrsdk2wlk-92" value="- mistrz: Gracz" style="text;strokeColor=none;fillColor=none;align=left;verticalAlign=top;spacingLeft=4;spacingRight=4;overflow=hidden;rotatable=0;points=[[0,0.5],[1,0.5]];portConstraint=eastwest;" parent="VNphzzCy2yVQrsdk2wlk-91" vertex="1"><mxGeometry y="26" width="270" height="26" as="geometry"/></mxCell><mxCell id="VNphzzCy2yVQrsdk2wlk-95" value="- wspolgracz: Gracz" style="text;strokeColor=none;fillColor=none;align=left;verticalAlign=top;spacingLeft=4;spacingRight=4;overflow=hidden;rotatable=0;points=[[0,0.5],[1,0.5]];portConstraint=eastwest;" parent="VNphzzCy2yVQrsdk2wlk-91" vertex="1"><mxGeometry y="52" width="270" height="26" as="geometry"/></mxCell><mxCell id="VNphzzCy2yVQrsdk2wlk-93" value="" style="line;strokeWidth=1;fillColor=none;align=left;verticalAlign=middle;spacingTop=-1;spacingLeft=3;spacingRight=3;rotatable=0;labelPosition=right;points=[];portConstraint=eastwest;" parent="VNphzzCy2yVQrsdk2wlk-91" vertex="1"><mxGeometry y="78" width="270" height="8" as="geometry"/></mxCell><mxCell id="VNphzzCy2yVQrsdk2wlk-94" value="+ Pokoj(mistrz: Gracz, wspolgracz: Gracz)" style="text;strokeColor=none;fillColor=none;align=left;verticalAlign=top;spacingLeft=4;spacingRight=4;overflow=hidden;rotatable=0;points=[[0,0.5],[1,0.5]];portConstraint=eastwest;" parent="VNphzzCy2yVQrsdk2wlk-91" vertex="1"><mxGeometry y="86" width="270" height="26" as="geometry"/></mxCell><mxCell id="VNphzzCy2yVQrsdk2wlk-96" value="1" style="endArrow=open;html=1;endSize=12;startArrow=diamondThin;startSize=14;startFill=0;edgeStyle=orthogonalEdgeStyle;align=left;verticalAlign=bottom;rounded=0;" parent="WIyWlLk6GJQsqaUBKTNV-1" source="VNphzzCy2yVQrsdk2wlk-91" target="blXQ6vC0kgBiwH_Xx96O-10" edge="1"><mxGeometry x="-1" y="3" relative="1" as="geometry"><mxPoint x="140" y="130" as="sourcePoint"/><mxPoint x="200" y="260" as="targetPoint"/><Array as="points"><mxPoint x="190" y="660"/><mxPoint x="190" y="660"/></Array></mxGeometry></mxCell><mxCell id="VNphzzCy2yVQrsdk2wlk-97" value="TworcaZasadGry" style="swimlane;fontStyle=1;align=center;verticalAlign=top;childLayout=stackLayout;horizontal=1;startSize=26;horizontalStack=0;resizeParent=1;resizeParentMax=0;resizeLast=0;collapsible=1;marginBottom=0;" parent="WIyWlLk6GJQsqaUBKTNV-1" vertex="1"><mxGeometry x="-510" y="740" width="160" height="86" as="geometry"/></mxCell><mxCell id="VNphzzCy2yVQrsdk2wlk-98" value="+ field: type" style="text;strokeColor=none;fillColor=none;align=left;verticalAlign=top;spacingLeft=4;spacingRight=4;overflow=hidden;rotatable=0;points=[[0,0.5],[1,0.5]];portConstraint=eastwest;" parent="VNphzzCy2yVQrsdk2wlk-97" vertex="1"><mxGeometry y="26" width="160" height="26" as="geometry"/></mxCell><mxCell id="VNphzzCy2yVQrsdk2wlk-99" value="" style="line;strokeWidth=1;fillColor=none;align=left;verticalAlign=middle;spacingTop=-1;spacingLeft=3;spacingRight=3;rotatable=0;labelPosition=right;points=[];portConstraint=eastwest;" parent="VNphzzCy2yVQrsdk2wlk-97" vertex="1"><mxGeometry y="52" width="160" height="8" as="geometry"/></mxCell><mxCell id="VNphzzCy2yVQrsdk2wlk-100" value="+ method(type): type" style="text;strokeColor=none;fillColor=none;align=left;verticalAlign=top;spacingLeft=4;spacingRight=4;overflow=hidden;rotatable=0;points=[[0,0.5],[1,0.5]];portConstraint=eastwest;" parent="VNphzzCy2yVQrsdk2wlk-97" vertex="1"><mxGeometry y="60" width="160" height="26" as="geometry"/></mxCell><mxCell id="VNphzzCy2yVQrsdk2wlk-101" value="" style="endArrow=none;html=1;edgeStyle=orthogonalEdgeStyle;rounded=0;entryX=0.5;entryY=0;entryDx=0;entryDy=0;" parent="WIyWlLk6GJQsqaUBKTNV-1" source="3BArPiUp08YbC-sUNbE6-38" target="VNphzzCy2yVQrsdk2wlk-97" edge="1"><mxGeometry relative="1" as="geometry"><mxPoint x="-450" y="940" as="sourcePoint"/><mxPoint x="-290" y="940" as="targetPoint"/></mxGeometry></mxCell><mxCell id="VNphzzCy2yVQrsdk2wlk-102" value="parent" style="edgeLabel;resizable=0;html=1;align=left;verticalAlign=bottom;" parent="VNphzzCy2yVQrsdk2wlk-101" connectable="0" vertex="1"><mxGeometry x="-1" relative="1" as="geometry"/></mxCell><mxCell id="VNphzzCy2yVQrsdk2wlk-103" value="child" style="edgeLabel;resizable=0;html=1;align=right;verticalAlign=bottom;" parent="VNphzzCy2yVQrsdk2wlk-101" connectable="0" vertex="1"><mxGeometry x="1" relative="1" as="geometry"/></mxCell><mxCell id="VNphzzCy2yVQrsdk2wlk-104" value="" style="endArrow=none;html=1;edgeStyle=orthogonalEdgeStyle;rounded=0;" parent="WIyWlLk6GJQsqaUBKTNV-1" source="VNphzzCy2yVQrsdk2wlk-97" target="3BArPiUp08YbC-sUNbE6-23" edge="1"><mxGeometry relative="1" as="geometry"><mxPoint x="-180" y="880" as="sourcePoint"/><mxPoint x="-20" y="880" as="targetPoint"/></mxGeometry></mxCell><mxCell id="VNphzzCy2yVQrsdk2wlk-105" value="parent" style="edgeLabel;resizable=0;html=1;align=left;verticalAlign=bottom;" parent="VNphzzCy2yVQrsdk2wlk-104" connectable="0" vertex="1"><mxGeometry x="-1" relative="1" as="geometry"/></mxCell><mxCell id="VNphzzCy2yVQrsdk2wlk-106" value="child" style="edgeLabel;resizable=0;html=1;align=right;verticalAlign=bottom;" parent="VNphzzCy2yVQrsdk2wlk-104" connectable="0" vertex="1"><mxGeometry x="1" relative="1" as="geometry"/></mxCell><mxCell id="VNphzzCy2yVQrsdk2wlk-108" value="&lt;&lt;struct&gt;&gt;&#10;RuchPionka" style="swimlane;fontStyle=1;align=center;verticalAlign=top;childLayout=stackLayout;horizontal=1;startSize=36;horizontalStack=0;resizeParent=1;resizeParentMax=0;resizeLast=0;collapsible=1;marginBottom=0;" parent="WIyWlLk6GJQsqaUBKTNV-1" vertex="1"><mxGeometry x="-950" y="749" width="160" height="96" as="geometry"/></mxCell><mxCell id="VNphzzCy2yVQrsdk2wlk-109" value="+ field: type" style="text;strokeColor=none;fillColor=none;align=left;verticalAlign=top;spacingLeft=4;spacingRight=4;overflow=hidden;rotatable=0;points=[[0,0.5],[1,0.5]];portConstraint=eastwest;" parent="VNphzzCy2yVQrsdk2wlk-108" vertex="1"><mxGeometry y="36" width="160" height="26" as="geometry"/></mxCell><mxCell id="VNphzzCy2yVQrsdk2wlk-110" value="" style="line;strokeWidth=1;fillColor=none;align=left;verticalAlign=middle;spacingTop=-1;spacingLeft=3;spacingRight=3;rotatable=0;labelPosition=right;points=[];portConstraint=eastwest;" parent="VNphzzCy2yVQrsdk2wlk-108" vertex="1"><mxGeometry y="62" width="160" height="8" as="geometry"/></mxCell><mxCell id="VNphzzCy2yVQrsdk2wlk-111" value="+ method(type): type" style="text;strokeColor=none;fillColor=none;align=left;verticalAlign=top;spacingLeft=4;spacingRight=4;overflow=hidden;rotatable=0;points=[[0,0.5],[1,0.5]];portConstraint=eastwest;" parent="VNphzzCy2yVQrsdk2wlk-108" vertex="1"><mxGeometry y="70" width="160" height="26" as="geometry"/></mxCell><mxCell id="VNphzzCy2yVQrsdk2wlk-112" value="" style="endArrow=none;html=1;edgeStyle=orthogonalEdgeStyle;rounded=0;" parent="WIyWlLk6GJQsqaUBKTNV-1" source="3BArPiUp08YbC-sUNbE6-57" target="VNphzzCy2yVQrsdk2wlk-108" edge="1"><mxGeometry relative="1" as="geometry"><mxPoint x="-960" y="720" as="sourcePoint"/><mxPoint x="-800" y="720" as="targetPoint"/></mxGeometry></mxCell><mxCell id="VNphzzCy2yVQrsdk2wlk-113" value="parent" style="edgeLabel;resizable=0;html=1;align=left;verticalAlign=bottom;" parent="VNphzzCy2yVQrsdk2wlk-112" connectable="0" vertex="1"><mxGeometry x="-1" relative="1" as="geometry"><mxPoint x="10" y="22" as="offset"/></mxGeometry></mxCell><mxCell id="VNphzzCy2yVQrsdk2wlk-114" value="child" style="edgeLabel;resizable=0;html=1;align=right;verticalAlign=bottom;" parent="VNphzzCy2yVQrsdk2wlk-112" connectable="0" vertex="1"><mxGeometry x="1" relative="1" as="geometry"/></mxCell><mxCell id="laMubo_LHe01Wa4HcpuL-8" value="1" style="endArrow=open;html=1;endSize=12;startArrow=diamondThin;startSize=14;startFill=1;edgeStyle=orthogonalEdgeStyle;align=left;verticalAlign=bottom;rounded=0;" parent="WIyWlLk6GJQsqaUBKTNV-1" source="287" target="3BArPiUp08YbC-sUNbE6-4" edge="1"><mxGeometry x="-0.8824" relative="1" as="geometry"><mxPoint x="905" y="350.0000000000002" as="sourcePoint"/><mxPoint x="940" y="480" as="targetPoint"/><Array as="points"><mxPoint x="750" y="350"/></Array><mxPoint as="offset"/></mxGeometry></mxCell><mxCell id="blXQ6vC0kgBiwH_Xx96O-0" value="SerwerThread" style="swimlane;fontStyle=1;align=center;verticalAlign=top;childLayout=stackLayout;horizontal=1;startSize=26;horizontalStack=0;resizeParent=1;resizeParentMax=0;resizeLast=0;collapsible=1;marginBottom=0;" parent="WIyWlLk6GJQsqaUBKTNV-1" vertex="1"><mxGeometry x="470" y="380" width="200" height="110" as="geometry"/></mxCell><mxCell id="blXQ6vC0kgBiwH_Xx96O-1" value="- socket: Socket" style="text;strokeColor=none;fillColor=none;align=left;verticalAlign=top;spacingLeft=4;spacingRight=4;overflow=hidden;rotatable=0;points=[[0,0.5],[1,0.5]];portConstraint=eastwest;" parent="blXQ6vC0kgBiwH_Xx96O-0" vertex="1"><mxGeometry y="26" width="200" height="26" as="geometry"/></mxCell><mxCell id="blXQ6vC0kgBiwH_Xx96O-2" value="" style="line;strokeWidth=1;fillColor=none;align=left;verticalAlign=middle;spacingTop=-1;spacingLeft=3;spacingRight=3;rotatable=0;labelPosition=right;points=[];portConstraint=eastwest;strokeColor=inherit;" parent="blXQ6vC0kgBiwH_Xx96O-0" vertex="1"><mxGeometry y="52" width="200" height="8" as="geometry"/></mxCell><mxCell id="blXQ6vC0kgBiwH_Xx96O-3" value="+ SerwerThread(socket: Socket)&#10;+ run()" style="text;strokeColor=none;fillColor=none;align=left;verticalAlign=top;spacingLeft=4;spacingRight=4;overflow=hidden;rotatable=0;points=[[0,0.5],[1,0.5]];portConstraint=eastwest;" parent="blXQ6vC0kgBiwH_Xx96O-0" vertex="1"><mxGeometry y="60" width="200" height="50" as="geometry"/></mxCell><mxCell id="blXQ6vC0kgBiwH_Xx96O-10" value="kontroler.KontrolerDanych" style="swimlane;fontStyle=1;align=center;verticalAlign=top;childLayout=stackLayout;horizontal=1;startSize=26;horizontalStack=0;resizeParent=1;resizeParentMax=0;resizeLast=0;collapsible=1;marginBottom=0;" parent="WIyWlLk6GJQsqaUBKTNV-1" vertex="1"><mxGeometry x="90" y="542" width="160" height="86" as="geometry"/></mxCell><mxCell id="blXQ6vC0kgBiwH_Xx96O-11" value="+ field: type" style="text;strokeColor=none;fillColor=none;align=left;verticalAlign=top;spacingLeft=4;spacingRight=4;overflow=hidden;rotatable=0;points=[[0,0.5],[1,0.5]];portConstraint=eastwest;" parent="blXQ6vC0kgBiwH_Xx96O-10" vertex="1"><mxGeometry y="26" width="160" height="26" as="geometry"/></mxCell><mxCell id="blXQ6vC0kgBiwH_Xx96O-12" value="" style="line;strokeWidth=1;fillColor=none;align=left;verticalAlign=middle;spacingTop=-1;spacingLeft=3;spacingRight=3;rotatable=0;labelPosition=right;points=[];portConstraint=eastwest;strokeColor=inherit;" parent="blXQ6vC0kgBiwH_Xx96O-10" vertex="1"><mxGeometry y="52" width="160" height="8" as="geometry"/></mxCell><mxCell id="blXQ6vC0kgBiwH_Xx96O-13" value="+ method(type): type" style="text;strokeColor=none;fillColor=none;align=left;verticalAlign=top;spacingLeft=4;spacingRight=4;overflow=hidden;rotatable=0;points=[[0,0.5],[1,0.5]];portConstraint=eastwest;" parent="blXQ6vC0kgBiwH_Xx96O-10" vertex="1"><mxGeometry y="60" width="160" height="26" as="geometry"/></mxCell><mxCell id="blXQ6vC0kgBiwH_Xx96O-14" value="" style="endArrow=diamondThin;endFill=1;endSize=24;html=1;rounded=0;" parent="WIyWlLk6GJQsqaUBKTNV-1" source="VNphzzCy2yVQrsdk2wlk-91" target="3BArPiUp08YbC-sUNbE6-17" edge="1"><mxGeometry width="160" relative="1" as="geometry"><mxPoint x="-40" y="700" as="sourcePoint"/><mxPoint x="120" y="700" as="targetPoint"/></mxGeometry></mxCell><mxCell id="blXQ6vC0kgBiwH_Xx96O-15" value="" style="endArrow=none;html=1;edgeStyle=orthogonalEdgeStyle;rounded=0;" parent="WIyWlLk6GJQsqaUBKTNV-1" source="3BArPiUp08YbC-sUNbE6-0" target="blXQ6vC0kgBiwH_Xx96O-0" edge="1"><mxGeometry relative="1" as="geometry"><mxPoint x="-40" y="500" as="sourcePoint"/><mxPoint x="120" y="500" as="targetPoint"/><Array as="points"><mxPoint x="510" y="310"/><mxPoint x="510" y="310"/></Array></mxGeometry></mxCell><mxCell id="blXQ6vC0kgBiwH_Xx96O-16" value="parent" style="edgeLabel;resizable=0;html=1;align=left;verticalAlign=bottom;" parent="blXQ6vC0kgBiwH_Xx96O-15" connectable="0" vertex="1"><mxGeometry x="-1" relative="1" as="geometry"/></mxCell><mxCell id="blXQ6vC0kgBiwH_Xx96O-17" value="child" style="edgeLabel;resizable=0;html=1;align=right;verticalAlign=bottom;" parent="blXQ6vC0kgBiwH_Xx96O-15" connectable="0" vertex="1"><mxGeometry x="1" relative="1" as="geometry"/></mxCell><mxCell id="280" value="*" style="edgeLabel;resizable=0;html=1;align=right;verticalAlign=bottom;" connectable="0" vertex="1" parent="WIyWlLk6GJQsqaUBKTNV-1"><mxGeometry x="750" y="279" as="geometry"/></mxCell><mxCell id="281" value="Aplikacja" style="swimlane;fontStyle=1;align=center;verticalAlign=top;childLayout=stackLayout;horizontal=1;startSize=26;horizontalStack=0;resizeParent=1;resizeParentMax=0;resizeLast=0;collapsible=1;marginBottom=0;" vertex="1" parent="WIyWlLk6GJQsqaUBKTNV-1"><mxGeometry x="1077.5" y="90" width="215" height="60" as="geometry"/></mxCell><mxCell id="282" value="" style="line;strokeWidth=1;fillColor=none;align=left;verticalAlign=middle;spacingTop=-1;spacingLeft=3;spacingRight=3;rotatable=0;labelPosition=right;points=[];portConstraint=eastwest;strokeColor=inherit;" vertex="1" parent="281"><mxGeometry y="26" width="215" height="8" as="geometry"/></mxCell><mxCell id="283" value="+ ustawNowyKorzen(korzen: Parent)" style="text;strokeColor=none;fillColor=none;align=left;verticalAlign=top;spacingLeft=4;spacingRight=4;overflow=hidden;rotatable=0;points=[[0,0.5],[1,0.5]];portConstraint=eastwest;" vertex="1" parent="281"><mxGeometry y="34" width="215" height="26" as="geometry"/></mxCell><mxCell id="284" value="&lt;&lt;interface&gt;&gt;&#10;Widok" style="swimlane;fontStyle=1;align=center;verticalAlign=top;childLayout=stackLayout;horizontal=1;startSize=44;horizontalStack=0;resizeParent=1;resizeParentMax=0;resizeLast=0;collapsible=1;marginBottom=0;" vertex="1" parent="WIyWlLk6GJQsqaUBKTNV-1"><mxGeometry x="1977.5" y="120" width="370" height="78" as="geometry"/></mxCell><mxCell id="285" value="" style="line;strokeWidth=1;fillColor=none;align=left;verticalAlign=middle;spacingTop=-1;spacingLeft=3;spacingRight=3;rotatable=0;labelPosition=right;points=[];portConstraint=eastwest;strokeColor=inherit;" vertex="1" parent="284"><mxGeometry y="44" width="370" height="8" as="geometry"/></mxCell><mxCell id="286" value="+ utworzWidok(kontroler: KontrolerWidoku, model: Model): Parent" style="text;strokeColor=none;fillColor=none;align=left;verticalAlign=top;spacingLeft=4;spacingRight=4;overflow=hidden;rotatable=0;points=[[0,0.5],[1,0.5]];portConstraint=eastwest;" vertex="1" parent="284"><mxGeometry y="52" width="370" height="26" as="geometry"/></mxCell><mxCell id="287" value="KontrolerAplikacji" style="swimlane;fontStyle=1;align=center;verticalAlign=top;childLayout=stackLayout;horizontal=1;startSize=26;horizontalStack=0;resizeParent=1;resizeParentMax=0;resizeLast=0;collapsible=1;marginBottom=0;" vertex="1" parent="WIyWlLk6GJQsqaUBKTNV-1"><mxGeometry x="1060" y="268" width="220" height="164" as="geometry"/></mxCell><mxCell id="288" value="- polaczenieSerwer: Klient" style="text;strokeColor=none;fillColor=none;align=left;verticalAlign=top;spacingLeft=4;spacingRight=4;overflow=hidden;rotatable=0;points=[[0,0.5],[1,0.5]];portConstraint=eastwest;" vertex="1" parent="287"><mxGeometry y="26" width="220" height="26" as="geometry"/></mxCell><mxCell id="289" value="- glownyModel: GlownyModel" style="text;strokeColor=none;fillColor=none;align=left;verticalAlign=top;spacingLeft=4;spacingRight=4;overflow=hidden;rotatable=0;points=[[0,0.5],[1,0.5]];portConstraint=eastwest;" vertex="1" parent="287"><mxGeometry y="52" width="220" height="26" as="geometry"/></mxCell><mxCell id="290" value="" style="line;strokeWidth=1;fillColor=none;align=left;verticalAlign=middle;spacingTop=-1;spacingLeft=3;spacingRight=3;rotatable=0;labelPosition=right;points=[];portConstraint=eastwest;strokeColor=inherit;" vertex="1" parent="287"><mxGeometry y="78" width="220" height="8" as="geometry"/></mxCell><mxCell id="291" value="+ utworzPodstawowaScene(): Parent" style="text;strokeColor=none;fillColor=none;align=left;verticalAlign=top;spacingLeft=4;spacingRight=4;overflow=hidden;rotatable=0;points=[[0,0.5],[1,0.5]];portConstraint=eastwest;" vertex="1" parent="287"><mxGeometry y="86" width="220" height="26" as="geometry"/></mxCell><mxCell id="292" value="+ utworzPokoj(nazwaGracza: String)" style="text;strokeColor=none;fillColor=none;align=left;verticalAlign=top;spacingLeft=4;spacingRight=4;overflow=hidden;rotatable=0;points=[[0,0.5],[1,0.5]];portConstraint=eastwest;" vertex="1" parent="287"><mxGeometry y="112" width="220" height="26" as="geometry"/></mxCell><mxCell id="293" value="+ rozpocznijGre(gracz: String)" style="text;strokeColor=none;fillColor=none;align=left;verticalAlign=top;spacingLeft=4;spacingRight=4;overflow=hidden;rotatable=0;points=[[0,0.5],[1,0.5]];portConstraint=eastwest;" vertex="1" parent="287"><mxGeometry y="138" width="220" height="26" as="geometry"/></mxCell><mxCell id="294" value="TworcaWidoku" style="swimlane;fontStyle=1;align=center;verticalAlign=top;childLayout=stackLayout;horizontal=1;startSize=26;horizontalStack=0;resizeParent=1;resizeParentMax=0;resizeLast=0;collapsible=1;marginBottom=0;" vertex="1" parent="WIyWlLk6GJQsqaUBKTNV-1"><mxGeometry x="1607.5" y="129" width="270" height="60" as="geometry"/></mxCell><mxCell id="295" value="" style="line;strokeWidth=1;fillColor=none;align=left;verticalAlign=middle;spacingTop=-1;spacingLeft=3;spacingRight=3;rotatable=0;labelPosition=right;points=[];portConstraint=eastwest;strokeColor=inherit;" vertex="1" parent="294"><mxGeometry y="26" width="270" height="8" as="geometry"/></mxCell><mxCell id="296" value="+ wybierzWidok(typ: TypyWidokow): Widok" style="text;strokeColor=none;fillColor=none;align=left;verticalAlign=top;spacingLeft=4;spacingRight=4;overflow=hidden;rotatable=0;points=[[0,0.5],[1,0.5]];portConstraint=eastwest;" vertex="1" parent="294"><mxGeometry y="34" width="270" height="26" as="geometry"/></mxCell><mxCell id="297" value="WidokGraczyOnline" style="swimlane;fontStyle=1;align=center;verticalAlign=top;childLayout=stackLayout;horizontal=1;startSize=26;horizontalStack=0;resizeParent=1;resizeParentMax=0;resizeLast=0;collapsible=1;marginBottom=0;" vertex="1" parent="WIyWlLk6GJQsqaUBKTNV-1"><mxGeometry x="2400" y="-164" width="370" height="112" as="geometry"/></mxCell><mxCell id="298" value="- kontroler: KontrolerWidokuGraczyOnline" style="text;strokeColor=none;fillColor=none;align=left;verticalAlign=top;spacingLeft=4;spacingRight=4;overflow=hidden;rotatable=0;points=[[0,0.5],[1,0.5]];portConstraint=eastwest;" vertex="1" parent="297"><mxGeometry y="26" width="370" height="26" as="geometry"/></mxCell><mxCell id="299" value="- model: ModelGraczyOnline" style="text;strokeColor=none;fillColor=none;align=left;verticalAlign=top;spacingLeft=4;spacingRight=4;overflow=hidden;rotatable=0;points=[[0,0.5],[1,0.5]];portConstraint=eastwest;" vertex="1" parent="297"><mxGeometry y="52" width="370" height="26" as="geometry"/></mxCell><mxCell id="300" value="" style="line;strokeWidth=1;fillColor=none;align=left;verticalAlign=middle;spacingTop=-1;spacingLeft=3;spacingRight=3;rotatable=0;labelPosition=right;points=[];portConstraint=eastwest;strokeColor=inherit;" vertex="1" parent="297"><mxGeometry y="78" width="370" height="8" as="geometry"/></mxCell><mxCell id="301" value="+ utworzWidok(kontroler: KontrolerWidoku, model: Model): Parent" style="text;strokeColor=none;fillColor=none;align=left;verticalAlign=top;spacingLeft=4;spacingRight=4;overflow=hidden;rotatable=0;points=[[0,0.5],[1,0.5]];portConstraint=eastwest;" vertex="1" parent="297"><mxGeometry y="86" width="370" height="26" as="geometry"/></mxCell><mxCell id="302" value="WidokPokoju" style="swimlane;fontStyle=1;align=center;verticalAlign=top;childLayout=stackLayout;horizontal=1;startSize=26;horizontalStack=0;resizeParent=1;resizeParentMax=0;resizeLast=0;collapsible=1;marginBottom=0;" vertex="1" parent="WIyWlLk6GJQsqaUBKTNV-1"><mxGeometry x="1977.5" y="-162" width="370" height="112" as="geometry"/></mxCell><mxCell id="303" value="- kontroler: KontrolerPokoju" style="text;strokeColor=none;fillColor=none;align=left;verticalAlign=top;spacingLeft=4;spacingRight=4;overflow=hidden;rotatable=0;points=[[0,0.5],[1,0.5]];portConstraint=eastwest;" vertex="1" parent="302"><mxGeometry y="26" width="370" height="26" as="geometry"/></mxCell><mxCell id="304" value="- model: ModelPokoju" style="text;strokeColor=none;fillColor=none;align=left;verticalAlign=top;spacingLeft=4;spacingRight=4;overflow=hidden;rotatable=0;points=[[0,0.5],[1,0.5]];portConstraint=eastwest;" vertex="1" parent="302"><mxGeometry y="52" width="370" height="26" as="geometry"/></mxCell><mxCell id="305" value="" style="line;strokeWidth=1;fillColor=none;align=left;verticalAlign=middle;spacingTop=-1;spacingLeft=3;spacingRight=3;rotatable=0;labelPosition=right;points=[];portConstraint=eastwest;strokeColor=inherit;" vertex="1" parent="302"><mxGeometry y="78" width="370" height="8" as="geometry"/></mxCell><mxCell id="306" value="+ utworzWidok(kontroler: KontrolerWidoku, model: Model): Parent" style="text;strokeColor=none;fillColor=none;align=left;verticalAlign=top;spacingLeft=4;spacingRight=4;overflow=hidden;rotatable=0;points=[[0,0.5],[1,0.5]];portConstraint=eastwest;" vertex="1" parent="302"><mxGeometry y="86" width="370" height="26" as="geometry"/></mxCell><mxCell id="307" value="WidokGry" style="swimlane;fontStyle=1;align=center;verticalAlign=top;childLayout=stackLayout;horizontal=1;startSize=26;horizontalStack=0;resizeParent=1;resizeParentMax=0;resizeLast=0;collapsible=1;marginBottom=0;" vertex="1" parent="WIyWlLk6GJQsqaUBKTNV-1"><mxGeometry x="1540" y="-164" width="370" height="112" as="geometry"/></mxCell><mxCell id="308" value="- kontroler: KontrolerGry" style="text;strokeColor=none;fillColor=none;align=left;verticalAlign=top;spacingLeft=4;spacingRight=4;overflow=hidden;rotatable=0;points=[[0,0.5],[1,0.5]];portConstraint=eastwest;" vertex="1" parent="307"><mxGeometry y="26" width="370" height="26" as="geometry"/></mxCell><mxCell id="309" value="- model: ModelGry" style="text;strokeColor=none;fillColor=none;align=left;verticalAlign=top;spacingLeft=4;spacingRight=4;overflow=hidden;rotatable=0;points=[[0,0.5],[1,0.5]];portConstraint=eastwest;" vertex="1" parent="307"><mxGeometry y="52" width="370" height="26" as="geometry"/></mxCell><mxCell id="310" value="" style="line;strokeWidth=1;fillColor=none;align=left;verticalAlign=middle;spacingTop=-1;spacingLeft=3;spacingRight=3;rotatable=0;labelPosition=right;points=[];portConstraint=eastwest;strokeColor=inherit;" vertex="1" parent="307"><mxGeometry y="78" width="370" height="8" as="geometry"/></mxCell><mxCell id="311" value="+ utworzWidok(kontroler: KontrolerWidoku, model: Model): Parent" style="text;strokeColor=none;fillColor=none;align=left;verticalAlign=top;spacingLeft=4;spacingRight=4;overflow=hidden;rotatable=0;points=[[0,0.5],[1,0.5]];portConstraint=eastwest;" vertex="1" parent="307"><mxGeometry y="86" width="370" height="26" as="geometry"/></mxCell><mxCell id="312" value="" style="endArrow=block;dashed=1;endFill=0;endSize=12;html=1;rounded=0;" edge="1" parent="WIyWlLk6GJQsqaUBKTNV-1" source="297" target="284"><mxGeometry width="160" relative="1" as="geometry"><mxPoint x="1370" y="470" as="sourcePoint"/><mxPoint x="1530" y="470" as="targetPoint"/></mxGeometry></mxCell><mxCell id="313" value="" style="endArrow=block;dashed=1;endFill=0;endSize=12;html=1;rounded=0;" edge="1" parent="WIyWlLk6GJQsqaUBKTNV-1" source="302" target="284"><mxGeometry width="160" relative="1" as="geometry"><mxPoint x="1410" y="670" as="sourcePoint"/><mxPoint x="1570" y="670" as="targetPoint"/></mxGeometry></mxCell><mxCell id="314" value="" style="endArrow=block;dashed=1;endFill=0;endSize=12;html=1;rounded=0;" edge="1" parent="WIyWlLk6GJQsqaUBKTNV-1" source="307" target="284"><mxGeometry width="160" relative="1" as="geometry"><mxPoint x="1520" y="670" as="sourcePoint"/><mxPoint x="1680" y="670" as="targetPoint"/></mxGeometry></mxCell><mxCell id="315" value="GlownyModel" style="swimlane;fontStyle=1;align=center;verticalAlign=top;childLayout=stackLayout;horizontal=1;startSize=26;horizontalStack=0;resizeParent=1;resizeParentMax=0;resizeLast=0;collapsible=1;marginBottom=0;" vertex="1" parent="WIyWlLk6GJQsqaUBKTNV-1"><mxGeometry x="1007.5" y="520" width="325" height="190" as="geometry"/></mxCell><mxCell id="316" value="- modelGraczyOnline: ModelWidokuGraczyOnline" style="text;strokeColor=none;fillColor=none;align=left;verticalAlign=top;spacingLeft=4;spacingRight=4;overflow=hidden;rotatable=0;points=[[0,0.5],[1,0.5]];portConstraint=eastwest;" vertex="1" parent="315"><mxGeometry y="26" width="325" height="26" as="geometry"/></mxCell><mxCell id="317" value="- modelPokoju: ModelPokoju" style="text;strokeColor=none;fillColor=none;align=left;verticalAlign=top;spacingLeft=4;spacingRight=4;overflow=hidden;rotatable=0;points=[[0,0.5],[1,0.5]];portConstraint=eastwest;" vertex="1" parent="315"><mxGeometry y="52" width="325" height="26" as="geometry"/></mxCell><mxCell id="318" value="- modelGry: ModelGry" style="text;strokeColor=none;fillColor=none;align=left;verticalAlign=top;spacingLeft=4;spacingRight=4;overflow=hidden;rotatable=0;points=[[0,0.5],[1,0.5]];portConstraint=eastwest;" vertex="1" parent="315"><mxGeometry y="78" width="325" height="26" as="geometry"/></mxCell><mxCell id="319" value="" style="line;strokeWidth=1;fillColor=none;align=left;verticalAlign=middle;spacingTop=-1;spacingLeft=3;spacingRight=3;rotatable=0;labelPosition=right;points=[];portConstraint=eastwest;strokeColor=inherit;" vertex="1" parent="315"><mxGeometry y="104" width="325" height="8" as="geometry"/></mxCell><mxCell id="320" value="+ modelPokoju(): ModelPokoju" style="text;strokeColor=none;fillColor=none;align=left;verticalAlign=top;spacingLeft=4;spacingRight=4;overflow=hidden;rotatable=0;points=[[0,0.5],[1,0.5]];portConstraint=eastwest;" vertex="1" parent="315"><mxGeometry y="112" width="325" height="26" as="geometry"/></mxCell><mxCell id="321" value="+ modelGry(): ModelGry" style="text;strokeColor=none;fillColor=none;align=left;verticalAlign=top;spacingLeft=4;spacingRight=4;overflow=hidden;rotatable=0;points=[[0,0.5],[1,0.5]];portConstraint=eastwest;" vertex="1" parent="315"><mxGeometry y="138" width="325" height="26" as="geometry"/></mxCell><mxCell id="322" value="+ modelGraczyOnline(): ModelGraczyOnline" style="text;strokeColor=none;fillColor=none;align=left;verticalAlign=top;spacingLeft=4;spacingRight=4;overflow=hidden;rotatable=0;points=[[0,0.5],[1,0.5]];portConstraint=eastwest;" vertex="1" parent="315"><mxGeometry y="164" width="325" height="26" as="geometry"/></mxCell><mxCell id="323" value="Use" style="endArrow=open;endSize=12;dashed=1;html=1;rounded=0;" edge="1" parent="WIyWlLk6GJQsqaUBKTNV-1" source="287" target="294"><mxGeometry width="160" relative="1" as="geometry"><mxPoint x="1300" y="390" as="sourcePoint"/><mxPoint x="1460" y="390" as="targetPoint"/></mxGeometry></mxCell><mxCell id="324" value="TypyWidokow" style="swimlane;fontStyle=0;childLayout=stackLayout;horizontal=1;startSize=26;fillColor=none;horizontalStack=0;resizeParent=1;resizeParentMax=0;resizeLast=0;collapsible=1;marginBottom=0;" vertex="1" parent="WIyWlLk6GJQsqaUBKTNV-1"><mxGeometry x="1395" y="90" width="180" height="104" as="geometry"/></mxCell><mxCell id="325" value="+ WIDOK_GRACZY_ONLINE" style="text;strokeColor=none;fillColor=none;align=left;verticalAlign=top;spacingLeft=4;spacingRight=4;overflow=hidden;rotatable=0;points=[[0,0.5],[1,0.5]];portConstraint=eastwest;" vertex="1" parent="324"><mxGeometry y="26" width="180" height="26" as="geometry"/></mxCell><mxCell id="326" value="+ WIDOK_POKOJU" style="text;strokeColor=none;fillColor=none;align=left;verticalAlign=top;spacingLeft=4;spacingRight=4;overflow=hidden;rotatable=0;points=[[0,0.5],[1,0.5]];portConstraint=eastwest;" vertex="1" parent="324"><mxGeometry y="52" width="180" height="26" as="geometry"/></mxCell><mxCell id="327" value="+ WIDOK_GRY" style="text;strokeColor=none;fillColor=none;align=left;verticalAlign=top;spacingLeft=4;spacingRight=4;overflow=hidden;rotatable=0;points=[[0,0.5],[1,0.5]];portConstraint=eastwest;" vertex="1" parent="324"><mxGeometry y="78" width="180" height="26" as="geometry"/></mxCell><mxCell id="328" value="1" style="endArrow=open;html=1;endSize=12;startArrow=diamondThin;startSize=14;startFill=1;edgeStyle=orthogonalEdgeStyle;align=left;verticalAlign=bottom;rounded=0;" edge="1" parent="WIyWlLk6GJQsqaUBKTNV-1" source="281" target="287"><mxGeometry x="-0.5514" y="10" relative="1" as="geometry"><mxPoint x="1170" y="110" as="sourcePoint"/><mxPoint x="1280" y="220" as="targetPoint"/><mxPoint as="offset"/></mxGeometry></mxCell><mxCell id="330" value="Use" style="endArrow=open;endSize=12;dashed=1;html=1;rounded=0;" edge="1" parent="WIyWlLk6GJQsqaUBKTNV-1" source="294" target="284"><mxGeometry width="160" relative="1" as="geometry"><mxPoint x="1810" y="320" as="sourcePoint"/><mxPoint x="1970" y="320" as="targetPoint"/></mxGeometry></mxCell><mxCell id="331" value="TworcaKontrolera" style="swimlane;fontStyle=1;align=center;verticalAlign=top;childLayout=stackLayout;horizontal=1;startSize=26;horizontalStack=0;resizeParent=1;resizeParentMax=0;resizeLast=0;collapsible=1;marginBottom=0;" vertex="1" parent="WIyWlLk6GJQsqaUBKTNV-1"><mxGeometry x="1575" y="320" width="335" height="60" as="geometry"/></mxCell><mxCell id="332" value="" style="line;strokeWidth=1;fillColor=none;align=left;verticalAlign=middle;spacingTop=-1;spacingLeft=3;spacingRight=3;rotatable=0;labelPosition=right;points=[];portConstraint=eastwest;strokeColor=inherit;" vertex="1" parent="331"><mxGeometry y="26" width="335" height="8" as="geometry"/></mxCell><mxCell id="333" value="+ wybierzKontroler(typ: TypyKontrolerow): KontrolerWidoku" style="text;strokeColor=none;fillColor=none;align=left;verticalAlign=top;spacingLeft=4;spacingRight=4;overflow=hidden;rotatable=0;points=[[0,0.5],[1,0.5]];portConstraint=eastwest;" vertex="1" parent="331"><mxGeometry y="34" width="335" height="26" as="geometry"/></mxCell><mxCell id="334" value="&lt;&lt;interface&gt;&gt;&#10;Model" style="swimlane;fontStyle=1;align=center;verticalAlign=top;childLayout=stackLayout;horizontal=1;startSize=40;horizontalStack=0;resizeParent=1;resizeParentMax=0;resizeLast=0;collapsible=1;marginBottom=0;" vertex="1" parent="WIyWlLk6GJQsqaUBKTNV-1"><mxGeometry x="1090" y="760" width="160" height="48" as="geometry"/></mxCell><mxCell id="335" value="" style="line;strokeWidth=1;fillColor=none;align=left;verticalAlign=middle;spacingTop=-1;spacingLeft=3;spacingRight=3;rotatable=0;labelPosition=right;points=[];portConstraint=eastwest;strokeColor=inherit;" vertex="1" parent="334"><mxGeometry y="40" width="160" height="8" as="geometry"/></mxCell><mxCell id="336" value="Use" style="endArrow=open;endSize=12;dashed=1;html=1;rounded=0;" edge="1" parent="WIyWlLk6GJQsqaUBKTNV-1" source="315" target="334"><mxGeometry width="160" relative="1" as="geometry"><mxPoint x="1845" y="323.2253521126763" as="sourcePoint"/><mxPoint x="1960" y="440" as="targetPoint"/></mxGeometry></mxCell><mxCell id="337" value="Use" style="endArrow=open;endSize=12;dashed=1;html=1;rounded=0;" edge="1" parent="WIyWlLk6GJQsqaUBKTNV-1" source="287" target="331"><mxGeometry width="160" relative="1" as="geometry"><mxPoint x="1350" y="350" as="sourcePoint"/><mxPoint x="1510" y="350" as="targetPoint"/></mxGeometry></mxCell><mxCell id="338" value="&lt;&lt;interface&gt;&gt;&#10;KontrolerWidoku" style="swimlane;fontStyle=1;align=center;verticalAlign=top;childLayout=stackLayout;horizontal=1;startSize=41;horizontalStack=0;resizeParent=1;resizeParentMax=0;resizeLast=0;collapsible=1;marginBottom=0;" vertex="1" parent="WIyWlLk6GJQsqaUBKTNV-1"><mxGeometry x="2000" y="299.5" width="325" height="101" as="geometry"/></mxCell><mxCell id="339" value="" style="line;strokeWidth=1;fillColor=none;align=left;verticalAlign=middle;spacingTop=-1;spacingLeft=3;spacingRight=3;rotatable=0;labelPosition=right;points=[];portConstraint=eastwest;strokeColor=inherit;" vertex="1" parent="338"><mxGeometry y="41" width="325" height="8" as="geometry"/></mxCell><mxCell id="340" value="+ przekazModel(model: Model)" style="text;strokeColor=none;fillColor=none;align=left;verticalAlign=top;spacingLeft=4;spacingRight=4;overflow=hidden;rotatable=0;points=[[0,0.5],[1,0.5]];portConstraint=eastwest;" vertex="1" parent="338"><mxGeometry y="49" width="325" height="26" as="geometry"/></mxCell><mxCell id="341" value="+ przekazGlownyKontroler(kontroler: KontrolerAplikacji)" style="text;strokeColor=none;fillColor=none;align=left;verticalAlign=top;spacingLeft=4;spacingRight=4;overflow=hidden;rotatable=0;points=[[0,0.5],[1,0.5]];portConstraint=eastwest;" vertex="1" parent="338"><mxGeometry y="75" width="325" height="26" as="geometry"/></mxCell><mxCell id="342" value="Use" style="endArrow=open;endSize=12;dashed=1;html=1;rounded=0;" edge="1" parent="WIyWlLk6GJQsqaUBKTNV-1" source="331" target="338"><mxGeometry width="160" relative="1" as="geometry"><mxPoint x="1850" y="440" as="sourcePoint"/><mxPoint x="2010" y="440" as="targetPoint"/></mxGeometry></mxCell><mxCell id="343" value="KontrolerWidokuGraczyOnline" style="swimlane;fontStyle=1;align=center;verticalAlign=top;childLayout=stackLayout;horizontal=1;startSize=26;horizontalStack=0;resizeParent=1;resizeParentMax=0;resizeLast=0;collapsible=1;marginBottom=0;" vertex="1" parent="WIyWlLk6GJQsqaUBKTNV-1"><mxGeometry x="2370" y="535" width="330" height="138" as="geometry"/></mxCell><mxCell id="344" value="- kontroler: KontrolerAplikacji" style="text;strokeColor=none;fillColor=none;align=left;verticalAlign=top;spacingLeft=4;spacingRight=4;overflow=hidden;rotatable=0;points=[[0,0.5],[1,0.5]];portConstraint=eastwest;" vertex="1" parent="343"><mxGeometry y="26" width="330" height="26" as="geometry"/></mxCell><mxCell id="345" value="- model: ModelGraczyOnline" style="text;strokeColor=none;fillColor=none;align=left;verticalAlign=top;spacingLeft=4;spacingRight=4;overflow=hidden;rotatable=0;points=[[0,0.5],[1,0.5]];portConstraint=eastwest;" vertex="1" parent="343"><mxGeometry y="52" width="330" height="26" as="geometry"/></mxCell><mxCell id="346" value="" style="line;strokeWidth=1;fillColor=none;align=left;verticalAlign=middle;spacingTop=-1;spacingLeft=3;spacingRight=3;rotatable=0;labelPosition=right;points=[];portConstraint=eastwest;strokeColor=inherit;" vertex="1" parent="343"><mxGeometry y="78" width="330" height="8" as="geometry"/></mxCell><mxCell id="347" value="+ przekazModel(model: Model)" style="text;strokeColor=none;fillColor=none;align=left;verticalAlign=top;spacingLeft=4;spacingRight=4;overflow=hidden;rotatable=0;points=[[0,0.5],[1,0.5]];portConstraint=eastwest;" vertex="1" parent="343"><mxGeometry y="86" width="330" height="26" as="geometry"/></mxCell><mxCell id="348" value="+ przekazGlownyKontroler(kontroler: KontrolerAplikacji)" style="text;strokeColor=none;fillColor=none;align=left;verticalAlign=top;spacingLeft=4;spacingRight=4;overflow=hidden;rotatable=0;points=[[0,0.5],[1,0.5]];portConstraint=eastwest;" vertex="1" parent="343"><mxGeometry y="112" width="330" height="26" as="geometry"/></mxCell><mxCell id="349" value="KontrolerPokoju" style="swimlane;fontStyle=1;align=center;verticalAlign=top;childLayout=stackLayout;horizontal=1;startSize=26;horizontalStack=0;resizeParent=1;resizeParentMax=0;resizeLast=0;collapsible=1;marginBottom=0;" vertex="1" parent="WIyWlLk6GJQsqaUBKTNV-1"><mxGeometry x="1997.5" y="535" width="330" height="138" as="geometry"/></mxCell><mxCell id="350" value="- kontroler: KontrolerAplikacji" style="text;strokeColor=none;fillColor=none;align=left;verticalAlign=top;spacingLeft=4;spacingRight=4;overflow=hidden;rotatable=0;points=[[0,0.5],[1,0.5]];portConstraint=eastwest;" vertex="1" parent="349"><mxGeometry y="26" width="330" height="26" as="geometry"/></mxCell><mxCell id="351" value="- model: ModelPokoju" style="text;strokeColor=none;fillColor=none;align=left;verticalAlign=top;spacingLeft=4;spacingRight=4;overflow=hidden;rotatable=0;points=[[0,0.5],[1,0.5]];portConstraint=eastwest;" vertex="1" parent="349"><mxGeometry y="52" width="330" height="26" as="geometry"/></mxCell><mxCell id="352" value="" style="line;strokeWidth=1;fillColor=none;align=left;verticalAlign=middle;spacingTop=-1;spacingLeft=3;spacingRight=3;rotatable=0;labelPosition=right;points=[];portConstraint=eastwest;strokeColor=inherit;" vertex="1" parent="349"><mxGeometry y="78" width="330" height="8" as="geometry"/></mxCell><mxCell id="353" value="+ przekazModel(model: Model)" style="text;strokeColor=none;fillColor=none;align=left;verticalAlign=top;spacingLeft=4;spacingRight=4;overflow=hidden;rotatable=0;points=[[0,0.5],[1,0.5]];portConstraint=eastwest;" vertex="1" parent="349"><mxGeometry y="86" width="330" height="26" as="geometry"/></mxCell><mxCell id="354" value="+ przekazGlownyKontroler(kontroler: KontrolerAplikacji)" style="text;strokeColor=none;fillColor=none;align=left;verticalAlign=top;spacingLeft=4;spacingRight=4;overflow=hidden;rotatable=0;points=[[0,0.5],[1,0.5]];portConstraint=eastwest;" vertex="1" parent="349"><mxGeometry y="112" width="330" height="26" as="geometry"/></mxCell><mxCell id="355" value="KontrolerGry" style="swimlane;fontStyle=1;align=center;verticalAlign=top;childLayout=stackLayout;horizontal=1;startSize=26;horizontalStack=0;resizeParent=1;resizeParentMax=0;resizeLast=0;collapsible=1;marginBottom=0;" vertex="1" parent="WIyWlLk6GJQsqaUBKTNV-1"><mxGeometry x="1630" y="533" width="330" height="138" as="geometry"/></mxCell><mxCell id="356" value="- kontroler: KontrolerAplikacji" style="text;strokeColor=none;fillColor=none;align=left;verticalAlign=top;spacingLeft=4;spacingRight=4;overflow=hidden;rotatable=0;points=[[0,0.5],[1,0.5]];portConstraint=eastwest;" vertex="1" parent="355"><mxGeometry y="26" width="330" height="26" as="geometry"/></mxCell><mxCell id="357" value="- model: ModelGry" style="text;strokeColor=none;fillColor=none;align=left;verticalAlign=top;spacingLeft=4;spacingRight=4;overflow=hidden;rotatable=0;points=[[0,0.5],[1,0.5]];portConstraint=eastwest;" vertex="1" parent="355"><mxGeometry y="52" width="330" height="26" as="geometry"/></mxCell><mxCell id="358" value="" style="line;strokeWidth=1;fillColor=none;align=left;verticalAlign=middle;spacingTop=-1;spacingLeft=3;spacingRight=3;rotatable=0;labelPosition=right;points=[];portConstraint=eastwest;strokeColor=inherit;" vertex="1" parent="355"><mxGeometry y="78" width="330" height="8" as="geometry"/></mxCell><mxCell id="359" value="+ przekazModel(model: Model)" style="text;strokeColor=none;fillColor=none;align=left;verticalAlign=top;spacingLeft=4;spacingRight=4;overflow=hidden;rotatable=0;points=[[0,0.5],[1,0.5]];portConstraint=eastwest;" vertex="1" parent="355"><mxGeometry y="86" width="330" height="26" as="geometry"/></mxCell><mxCell id="360" value="+ przekazGlownyKontroler(kontroler: KontrolerAplikacji)" style="text;strokeColor=none;fillColor=none;align=left;verticalAlign=top;spacingLeft=4;spacingRight=4;overflow=hidden;rotatable=0;points=[[0,0.5],[1,0.5]];portConstraint=eastwest;" vertex="1" parent="355"><mxGeometry y="112" width="330" height="26" as="geometry"/></mxCell><mxCell id="361" value="" style="endArrow=block;dashed=1;endFill=0;endSize=12;html=1;rounded=0;" edge="1" parent="WIyWlLk6GJQsqaUBKTNV-1" source="343" target="338"><mxGeometry width="160" relative="1" as="geometry"><mxPoint x="2130" y="500" as="sourcePoint"/><mxPoint x="2290" y="500" as="targetPoint"/></mxGeometry></mxCell><mxCell id="362" value="" style="endArrow=block;dashed=1;endFill=0;endSize=12;html=1;rounded=0;" edge="1" parent="WIyWlLk6GJQsqaUBKTNV-1" source="349" target="338"><mxGeometry width="160" relative="1" as="geometry"><mxPoint x="2120" y="560" as="sourcePoint"/><mxPoint x="2280" y="560" as="targetPoint"/></mxGeometry></mxCell><mxCell id="363" value="" style="endArrow=block;dashed=1;endFill=0;endSize=12;html=1;rounded=0;" edge="1" parent="WIyWlLk6GJQsqaUBKTNV-1" source="355" target="338"><mxGeometry width="160" relative="1" as="geometry"><mxPoint x="2310" y="520" as="sourcePoint"/><mxPoint x="2470" y="520" as="targetPoint"/></mxGeometry></mxCell><mxCell id="364" value="TypyKontrolerow" style="swimlane;fontStyle=0;childLayout=stackLayout;horizontal=1;startSize=26;fillColor=none;horizontalStack=0;resizeParent=1;resizeParentMax=0;resizeLast=0;collapsible=1;marginBottom=0;" vertex="1" parent="WIyWlLk6GJQsqaUBKTNV-1"><mxGeometry x="1320" y="360" width="210" height="104" as="geometry"/></mxCell><mxCell id="365" value="+ KONTROLER_GRACZY_ONLINE" style="text;strokeColor=none;fillColor=none;align=left;verticalAlign=top;spacingLeft=4;spacingRight=4;overflow=hidden;rotatable=0;points=[[0,0.5],[1,0.5]];portConstraint=eastwest;" vertex="1" parent="364"><mxGeometry y="26" width="210" height="26" as="geometry"/></mxCell><mxCell id="366" value="+ KONTROLER_POKOJU" style="text;strokeColor=none;fillColor=none;align=left;verticalAlign=top;spacingLeft=4;spacingRight=4;overflow=hidden;rotatable=0;points=[[0,0.5],[1,0.5]];portConstraint=eastwest;" vertex="1" parent="364"><mxGeometry y="52" width="210" height="26" as="geometry"/></mxCell><mxCell id="367" value="+ KONTROLER_GRY" style="text;strokeColor=none;fillColor=none;align=left;verticalAlign=top;spacingLeft=4;spacingRight=4;overflow=hidden;rotatable=0;points=[[0,0.5],[1,0.5]];portConstraint=eastwest;" vertex="1" parent="364"><mxGeometry y="78" width="210" height="26" as="geometry"/></mxCell><mxCell id="368" value="KafelekGraczaOnline" style="swimlane;fontStyle=1;align=center;verticalAlign=top;childLayout=stackLayout;horizontal=1;startSize=26;horizontalStack=0;resizeParent=1;resizeParentMax=0;resizeLast=0;collapsible=1;marginBottom=0;" vertex="1" parent="WIyWlLk6GJQsqaUBKTNV-1"><mxGeometry x="2455" y="-330" width="260" height="86" as="geometry"/></mxCell><mxCell id="369" value="- nazwaGracza: String" style="text;strokeColor=none;fillColor=none;align=left;verticalAlign=top;spacingLeft=4;spacingRight=4;overflow=hidden;rotatable=0;points=[[0,0.5],[1,0.5]];portConstraint=eastwest;" vertex="1" parent="368"><mxGeometry y="26" width="260" height="26" as="geometry"/></mxCell><mxCell id="370" value="" style="line;strokeWidth=1;fillColor=none;align=left;verticalAlign=middle;spacingTop=-1;spacingLeft=3;spacingRight=3;rotatable=0;labelPosition=right;points=[];portConstraint=eastwest;strokeColor=inherit;" vertex="1" parent="368"><mxGeometry y="52" width="260" height="8" as="geometry"/></mxCell><mxCell id="371" value="+ KafelekGraczaOnline(nazwaGracza: String)" style="text;strokeColor=none;fillColor=none;align=left;verticalAlign=top;spacingLeft=4;spacingRight=4;overflow=hidden;rotatable=0;points=[[0,0.5],[1,0.5]];portConstraint=eastwest;" vertex="1" parent="368"><mxGeometry y="60" width="260" height="26" as="geometry"/></mxCell><mxCell id="372" value="&lt;&lt;javafx&gt;&gt;&#10;VBox" style="swimlane;fontStyle=1;align=center;verticalAlign=top;childLayout=stackLayout;horizontal=1;startSize=38;horizontalStack=0;resizeParent=1;resizeParentMax=0;resizeLast=0;collapsible=1;marginBottom=0;" vertex="1" parent="WIyWlLk6GJQsqaUBKTNV-1"><mxGeometry x="2505" y="-460" width="160" height="46" as="geometry"/></mxCell><mxCell id="373" value="" style="line;strokeWidth=1;fillColor=none;align=left;verticalAlign=middle;spacingTop=-1;spacingLeft=3;spacingRight=3;rotatable=0;labelPosition=right;points=[];portConstraint=eastwest;strokeColor=inherit;" vertex="1" parent="372"><mxGeometry y="38" width="160" height="8" as="geometry"/></mxCell><mxCell id="374" value="Use" style="endArrow=open;endSize=12;dashed=1;html=1;rounded=0;" edge="1" parent="WIyWlLk6GJQsqaUBKTNV-1" source="297" target="368"><mxGeometry width="160" relative="1" as="geometry"><mxPoint x="2960" y="50" as="sourcePoint"/><mxPoint x="3120" y="50" as="targetPoint"/></mxGeometry></mxCell><mxCell id="375" value="PolePlanszy" style="swimlane;fontStyle=1;align=center;verticalAlign=top;childLayout=stackLayout;horizontal=1;startSize=26;horizontalStack=0;resizeParent=1;resizeParentMax=0;resizeLast=0;collapsible=1;marginBottom=0;" vertex="1" parent="WIyWlLk6GJQsqaUBKTNV-1"><mxGeometry x="1490" y="-356" width="220" height="112" as="geometry"/></mxCell><mxCell id="376" value="- kolumna: int" style="text;strokeColor=none;fillColor=none;align=left;verticalAlign=top;spacingLeft=4;spacingRight=4;overflow=hidden;rotatable=0;points=[[0,0.5],[1,0.5]];portConstraint=eastwest;" vertex="1" parent="375"><mxGeometry y="26" width="220" height="26" as="geometry"/></mxCell><mxCell id="377" value="- rzad: int" style="text;strokeColor=none;fillColor=none;align=left;verticalAlign=top;spacingLeft=4;spacingRight=4;overflow=hidden;rotatable=0;points=[[0,0.5],[1,0.5]];portConstraint=eastwest;" vertex="1" parent="375"><mxGeometry y="52" width="220" height="26" as="geometry"/></mxCell><mxCell id="378" value="" style="line;strokeWidth=1;fillColor=none;align=left;verticalAlign=middle;spacingTop=-1;spacingLeft=3;spacingRight=3;rotatable=0;labelPosition=right;points=[];portConstraint=eastwest;strokeColor=inherit;" vertex="1" parent="375"><mxGeometry y="78" width="220" height="8" as="geometry"/></mxCell><mxCell id="379" value="+ PolePlanszy(kolumna: int, rzad: int)" style="text;strokeColor=none;fillColor=none;align=left;verticalAlign=top;spacingLeft=4;spacingRight=4;overflow=hidden;rotatable=0;points=[[0,0.5],[1,0.5]];portConstraint=eastwest;" vertex="1" parent="375"><mxGeometry y="86" width="220" height="26" as="geometry"/></mxCell><mxCell id="380" value="Pionek" style="swimlane;fontStyle=1;align=center;verticalAlign=top;childLayout=stackLayout;horizontal=1;startSize=26;horizontalStack=0;resizeParent=1;resizeParentMax=0;resizeLast=0;collapsible=1;marginBottom=0;" vertex="1" parent="WIyWlLk6GJQsqaUBKTNV-1"><mxGeometry x="1770" y="-343" width="180" height="86" as="geometry"/></mxCell><mxCell id="381" value="- kolorPionka: String" style="text;strokeColor=none;fillColor=none;align=left;verticalAlign=top;spacingLeft=4;spacingRight=4;overflow=hidden;rotatable=0;points=[[0,0.5],[1,0.5]];portConstraint=eastwest;" vertex="1" parent="380"><mxGeometry y="26" width="180" height="26" as="geometry"/></mxCell><mxCell id="382" value="" style="line;strokeWidth=1;fillColor=none;align=left;verticalAlign=middle;spacingTop=-1;spacingLeft=3;spacingRight=3;rotatable=0;labelPosition=right;points=[];portConstraint=eastwest;strokeColor=inherit;" vertex="1" parent="380"><mxGeometry y="52" width="180" height="8" as="geometry"/></mxCell><mxCell id="383" value="+ Pionek(kolorPionka: String)" style="text;strokeColor=none;fillColor=none;align=left;verticalAlign=top;spacingLeft=4;spacingRight=4;overflow=hidden;rotatable=0;points=[[0,0.5],[1,0.5]];portConstraint=eastwest;" vertex="1" parent="380"><mxGeometry y="60" width="180" height="26" as="geometry"/></mxCell><mxCell id="384" value="Use" style="endArrow=open;endSize=12;dashed=1;html=1;rounded=0;" edge="1" parent="WIyWlLk6GJQsqaUBKTNV-1" source="307" target="375"><mxGeometry width="160" relative="1" as="geometry"><mxPoint x="2810" y="-400" as="sourcePoint"/><mxPoint x="2970" y="-400" as="targetPoint"/></mxGeometry></mxCell><mxCell id="385" value="&lt;&lt;javafx&gt;&gt;&#10;StackPane" style="swimlane;fontStyle=1;align=center;verticalAlign=top;childLayout=stackLayout;horizontal=1;startSize=41;horizontalStack=0;resizeParent=1;resizeParentMax=0;resizeLast=0;collapsible=1;marginBottom=0;" vertex="1" parent="WIyWlLk6GJQsqaUBKTNV-1"><mxGeometry x="1780" y="-477" width="160" height="49" as="geometry"/></mxCell><mxCell id="386" value="" style="line;strokeWidth=1;fillColor=none;align=left;verticalAlign=middle;spacingTop=-1;spacingLeft=3;spacingRight=3;rotatable=0;labelPosition=right;points=[];portConstraint=eastwest;strokeColor=inherit;" vertex="1" parent="385"><mxGeometry y="41" width="160" height="8" as="geometry"/></mxCell><mxCell id="387" value="&lt;&lt;javafx&gt;&gt;&#10;StackPane" style="swimlane;fontStyle=1;align=center;verticalAlign=top;childLayout=stackLayout;horizontal=1;startSize=44;horizontalStack=0;resizeParent=1;resizeParentMax=0;resizeLast=0;collapsible=1;marginBottom=0;" vertex="1" parent="WIyWlLk6GJQsqaUBKTNV-1"><mxGeometry x="1520" y="-480" width="160" height="52" as="geometry"/></mxCell><mxCell id="388" value="" style="line;strokeWidth=1;fillColor=none;align=left;verticalAlign=middle;spacingTop=-1;spacingLeft=3;spacingRight=3;rotatable=0;labelPosition=right;points=[];portConstraint=eastwest;strokeColor=inherit;" vertex="1" parent="387"><mxGeometry y="44" width="160" height="8" as="geometry"/></mxCell><mxCell id="389" value="1" style="endArrow=open;html=1;endSize=12;startArrow=diamondThin;startSize=14;startFill=1;edgeStyle=orthogonalEdgeStyle;align=left;verticalAlign=bottom;rounded=0;" edge="1" parent="WIyWlLk6GJQsqaUBKTNV-1" source="287" target="315"><mxGeometry x="-0.5909" y="10" relative="1" as="geometry"><mxPoint x="1080" y="440" as="sourcePoint"/><mxPoint x="1240" y="440" as="targetPoint"/><mxPoint as="offset"/></mxGeometry></mxCell><mxCell id="390" value="ModelGraczyOnline" style="swimlane;fontStyle=1;align=center;verticalAlign=top;childLayout=stackLayout;horizontal=1;startSize=26;horizontalStack=0;resizeParent=1;resizeParentMax=0;resizeLast=0;collapsible=1;marginBottom=0;" vertex="1" parent="WIyWlLk6GJQsqaUBKTNV-1"><mxGeometry x="800" y="968" width="220" height="86" as="geometry"/></mxCell><mxCell id="391" value="- listaGraczy: VBox" style="text;strokeColor=none;fillColor=none;align=left;verticalAlign=top;spacingLeft=4;spacingRight=4;overflow=hidden;rotatable=0;points=[[0,0.5],[1,0.5]];portConstraint=eastwest;" vertex="1" parent="390"><mxGeometry y="26" width="220" height="26" as="geometry"/></mxCell><mxCell id="392" value="" style="line;strokeWidth=1;fillColor=none;align=left;verticalAlign=middle;spacingTop=-1;spacingLeft=3;spacingRight=3;rotatable=0;labelPosition=right;points=[];portConstraint=eastwest;strokeColor=inherit;" vertex="1" parent="390"><mxGeometry y="52" width="220" height="8" as="geometry"/></mxCell><mxCell id="393" value="+ ustawListeGraczy(listaGracz: VBox)" style="text;strokeColor=none;fillColor=none;align=left;verticalAlign=top;spacingLeft=4;spacingRight=4;overflow=hidden;rotatable=0;points=[[0,0.5],[1,0.5]];portConstraint=eastwest;" vertex="1" parent="390"><mxGeometry y="60" width="220" height="26" as="geometry"/></mxCell><mxCell id="394" value="ModelGry" style="swimlane;fontStyle=1;align=center;verticalAlign=top;childLayout=stackLayout;horizontal=1;startSize=26;horizontalStack=0;resizeParent=1;resizeParentMax=0;resizeLast=0;collapsible=1;marginBottom=0;" vertex="1" parent="WIyWlLk6GJQsqaUBKTNV-1"><mxGeometry x="1090" y="942" width="160" height="138" as="geometry"/></mxCell><mxCell id="395" value="- kolorPionkow: String" style="text;strokeColor=none;fillColor=none;align=left;verticalAlign=top;spacingLeft=4;spacingRight=4;overflow=hidden;rotatable=0;points=[[0,0.5],[1,0.5]];portConstraint=eastwest;" vertex="1" parent="394"><mxGeometry y="26" width="160" height="26" as="geometry"/></mxCell><mxCell id="396" value="- iloscPol: int" style="text;strokeColor=none;fillColor=none;align=left;verticalAlign=top;spacingLeft=4;spacingRight=4;overflow=hidden;rotatable=0;points=[[0,0.5],[1,0.5]];portConstraint=eastwest;" vertex="1" parent="394"><mxGeometry y="52" width="160" height="26" as="geometry"/></mxCell><mxCell id="397" value="" style="line;strokeWidth=1;fillColor=none;align=left;verticalAlign=middle;spacingTop=-1;spacingLeft=3;spacingRight=3;rotatable=0;labelPosition=right;points=[];portConstraint=eastwest;strokeColor=inherit;" vertex="1" parent="394"><mxGeometry y="78" width="160" height="8" as="geometry"/></mxCell><mxCell id="398" value="+ iloscPol(): int" style="text;strokeColor=none;fillColor=none;align=left;verticalAlign=top;spacingLeft=4;spacingRight=4;overflow=hidden;rotatable=0;points=[[0,0.5],[1,0.5]];portConstraint=eastwest;" vertex="1" parent="394"><mxGeometry y="86" width="160" height="26" as="geometry"/></mxCell><mxCell id="399" value="+ kolorPionkow(): String" style="text;strokeColor=none;fillColor=none;align=left;verticalAlign=top;spacingLeft=4;spacingRight=4;overflow=hidden;rotatable=0;points=[[0,0.5],[1,0.5]];portConstraint=eastwest;" vertex="1" parent="394"><mxGeometry y="112" width="160" height="26" as="geometry"/></mxCell><mxCell id="400" value="ModelPokoju" style="swimlane;fontStyle=1;align=center;verticalAlign=top;childLayout=stackLayout;horizontal=1;startSize=26;horizontalStack=0;resizeParent=1;resizeParentMax=0;resizeLast=0;collapsible=1;marginBottom=0;" vertex="1" parent="WIyWlLk6GJQsqaUBKTNV-1"><mxGeometry x="1292.5" y="968" width="337.5" height="86" as="geometry"/></mxCell><mxCell id="401" value="- dostepneTryby: ObjectProperty&lt;ObservableList&lt;String&gt;&gt;" style="text;strokeColor=none;fillColor=none;align=left;verticalAlign=top;spacingLeft=4;spacingRight=4;overflow=hidden;rotatable=0;points=[[0,0.5],[1,0.5]];portConstraint=eastwest;" vertex="1" parent="400"><mxGeometry y="26" width="337.5" height="26" as="geometry"/></mxCell><mxCell id="402" value="" style="line;strokeWidth=1;fillColor=none;align=left;verticalAlign=middle;spacingTop=-1;spacingLeft=3;spacingRight=3;rotatable=0;labelPosition=right;points=[];portConstraint=eastwest;strokeColor=inherit;" vertex="1" parent="400"><mxGeometry y="52" width="337.5" height="8" as="geometry"/></mxCell><mxCell id="403" value="+ dostepneTryby(): ObjectProperty&lt;ObservableList&lt;String&gt;&gt;" style="text;strokeColor=none;fillColor=none;align=left;verticalAlign=top;spacingLeft=4;spacingRight=4;overflow=hidden;rotatable=0;points=[[0,0.5],[1,0.5]];portConstraint=eastwest;" vertex="1" parent="400"><mxGeometry y="60" width="337.5" height="26" as="geometry"/></mxCell><mxCell id="404" value="" style="endArrow=block;dashed=1;endFill=0;endSize=12;html=1;rounded=0;" edge="1" parent="WIyWlLk6GJQsqaUBKTNV-1" source="390" target="334"><mxGeometry width="160" relative="1" as="geometry"><mxPoint x="880" y="890" as="sourcePoint"/><mxPoint x="1040" y="890" as="targetPoint"/></mxGeometry></mxCell><mxCell id="405" value="" style="endArrow=block;dashed=1;endFill=0;endSize=12;html=1;rounded=0;" edge="1" parent="WIyWlLk6GJQsqaUBKTNV-1" source="394" target="334"><mxGeometry width="160" relative="1" as="geometry"><mxPoint x="1130" y="910" as="sourcePoint"/><mxPoint x="1290" y="910" as="targetPoint"/></mxGeometry></mxCell><mxCell id="406" value="Extends" style="endArrow=block;endSize=16;endFill=0;html=1;rounded=0;" edge="1" parent="WIyWlLk6GJQsqaUBKTNV-1" source="368" target="372"><mxGeometry width="160" relative="1" as="geometry"><mxPoint x="3280" y="80" as="sourcePoint"/><mxPoint x="3440" y="80" as="targetPoint"/></mxGeometry></mxCell><mxCell id="407" value="Extends" style="endArrow=block;endSize=16;endFill=0;html=1;rounded=0;" edge="1" parent="WIyWlLk6GJQsqaUBKTNV-1" source="380" target="385"><mxGeometry width="160" relative="1" as="geometry"><mxPoint x="1930" y="-334" as="sourcePoint"/><mxPoint x="2090" y="-334" as="targetPoint"/></mxGeometry></mxCell><mxCell id="408" value="Extends" style="endArrow=block;endSize=16;endFill=0;html=1;rounded=0;" edge="1" parent="WIyWlLk6GJQsqaUBKTNV-1" source="375" target="387"><mxGeometry width="160" relative="1" as="geometry"><mxPoint x="1980" y="-514" as="sourcePoint"/><mxPoint x="2140" y="-514" as="targetPoint"/></mxGeometry></mxCell><mxCell id="409" value="" style="endArrow=block;dashed=1;endFill=0;endSize=12;html=1;rounded=0;" edge="1" parent="WIyWlLk6GJQsqaUBKTNV-1" source="400" target="334"><mxGeometry width="160" relative="1" as="geometry"><mxPoint x="1270" y="890" as="sourcePoint"/><mxPoint x="1430" y="890" as="targetPoint"/></mxGeometry></mxCell><mxCell id="410" value="Use" style="endArrow=open;endSize=12;dashed=1;html=1;rounded=0;" edge="1" parent="WIyWlLk6GJQsqaUBKTNV-1" source="307" target="380"><mxGeometry width="160" relative="1" as="geometry"><mxPoint x="1820" y="-230" as="sourcePoint"/><mxPoint x="1980" y="-230" as="targetPoint"/></mxGeometry></mxCell></root></mxGraphModel></diagram></mxfile>